<svg xmlns="http://www.w3.org/2000/svg" viewBox="0 0 28.301 21.998"><defs><style>.b{fill:none;stroke:#fbb03b;stroke-miterlimit:10;stroke-width:.5px;opacity:.53}.c{fill:#333}</style></defs><path d="M19.342 6.512a7.24 7.24 0 0 0-3.165 1.148c-.489-.586-1.396-1.554-1.455-1.62a8.831 8.831 0 0 0-5.977-2.824v-.02c-.108 0-.214.005-.32.009-.076-.002-.148-.009-.225-.009v.02a8.564 8.564 0 0 0-7.9 8.697 8.67 8.67 0 0 0 8.445 8.443h8.171 6.646a7.06 7.06 0 0 0 3.977-6.537 7.356 7.356 0 0 0-8.197-7.307z" fill="#fbb03b" opacity=".25"/><path class="b" d="M6.301 20.196h22M2.301 20.196h2"/><path class="c" d="M19.183 21.66l-.221.088-.248-.192-.445.048c-.721-.126-.721-.17-.721-.273 0-.044.021-.388.021-.388l.246-.375-.27-.165-1.775-.022-.213 1.043-.665-.068-.148.147-.734-.07-.617-.194-.62.006-.196-.564-.532-.103-.493-.806-.216-1.103-.945-.504-.506-2.002-.1.184-.42.427-.306-.016.031.231-.343.319-.604.029-.226.371-.393.074-.309-.125-.089.09-.954.037h-.151l.155-.802-.274-1.238c.312-1.925.405-1.925.523-1.925a1.302 1.302 0 0 1 .28.05l.138-.14-.012-.349-.23-.153.315-.614H6.63L4.652 9.438l-.91.135-.868.733-1.854-.198.026-.768-.103-.41-.77-.765-.035-.509v-.499L.39 6.93l.002-.342-.178-.312-.074-.392.122-.257.057-.09.165.07.34-.377.66-.423.443-.276.198-.284.378-.217.179.108.1-.126.768-.193.362.03v.064l.207-.188.056.556h.118l.086.49.342.016.07-.082.197-.14v.62l.159.06.054.415.304-.087.485.196a.275.275 0 0 1 .06-.002c.156 0 .574.012.607.012.06-.004.572-.082.572-.083l.674-.344 1.183 1.116.22.16.504.217.118-.005-.058-.328.46-.132v-.307l.43-.565.415-.103v-.091l-.13-.19-.05-.083.072-.071-.178-.208-.009-.285.01-.088 1.182-.28.102-.266.626-.22V3.54l-.12-.632.58-.359-.588-.982.639-.193a1.668 1.668 0 0 1 .413-.119h.078l.058.078a.28.28 0 0 1 .038.022l.135-.329.368.1.423-.273.265.453-.17.155.402.193.17.15.809-.887v.939l.47-.086.09.007-.213-.972.818-.573.208.399.222-.424.647.65.273.028.102.02v.567l-.265.517.17.147.715-.189.678.53-.368.22-.792.416-.026.211.355.336.45.096.81.256.109.11.233-.374.283-.839-.007-.445.438-1.04.39-.07.042.083s.09.18.112.249a1.159 1.159 0 0 0 .092.16l.153.18.374-.23v.52l.25.226.418-.242.55.735-.192.507-.454.287.798.67.867.09v.517l.297.242-.438.414.297.593-.03.551-.923 1.435-.229-.105-.47.772c-.197.093-.38.17-.479.216.029.061.072.148.118.239.132.268.19.389.214.455.036.01.095.024.137.034.217.05.442.102.406.28a.708.708 0 0 1-.13.24.756.756 0 0 0-.08.128 3.565 3.565 0 0 1-.13.53c-.258.198-.503.37-.553.428l.008-.002c.046 0 .177.167.29.303l.064.317.195-.032s.28.254.302.276c.063.061.074.073-.18.905l-.02.068-.566.145.322.577.104.007.058.022.075.245h.31l.558.786-.19.221-.074.324-.297.14.563 1.167-.578.376-.522.242-.277.01-.488.79-1.263-1.182-.056.234.066.353.204.11.136.1-.695.504.013.277h.445l-.37.71-.327.205-.023.312-.162.062v.288l-.123.003a7.08 7.08 0 0 0-.974.063c.031.024-.172 1.143-.172 1.143l-.031.174z"/><path class="c" d="M17.926.418l.528.527.338.063v.465l-.296.548.296.254.717-.19.485.38-.21.126-.845.443-.042.338.401.38.506.127.802.253.17.19.316-.507.295-.865v-.486l.401-.928.232-.042s.085.169.106.232a1.215 1.215 0 0 0 .105.19l.232.274.275-.169v.296l.359.38.4-.233.444.592-.17.443-.548.316.929.781.823.106v.464l.232.19-.401.38.338.675-.043.485-.844 1.287-.232-.105-.527.865a2.87 2.87 0 0 0-.528.232c0 .043.38.76.38.823s.548.106.527.212c-.02.105-.21.295-.21.38a4.38 4.38 0 0 1-.127.506s-.57.358-.549.422a4.378 4.378 0 0 0 .317.422l.063.38.253-.042s.232.21.253.232c.022.02-.21.78-.21.78l-.655.17.401.717.169.063.084.275h.338l.464.654-.126.148-.085.316-.359.169.57 1.182-.485.316-.507.232h-.295l-.443.718-1.309-1.224-.105.443.063.401.253.19-.612.443.022.464h.358l-.274.528-.338.19-.02.295-.17.064v.253a5.861 5.861 0 0 0-1.034.084 57.616 57.616 0 0 0-.232 1.224l-.147-.084-.212.084-.19-.147-.527.02a3.025 3.025 0 0 1-.59-.147c0-.042.02-.38.02-.38l.296-.422-.38-.232-1.942-.042-.21 1.034-.613-.064-.147.148-.676-.063-.59-.19h-.57l-.19-.549-.549-.105-.464-.76-.211-1.118-.95-.507-.57-2.258-.253.464-.359.359-.4-.021.041.317-.295.274h-.59l-.233.38-.338.063-.316-.148-.148.148h-.865l.126-.654-.274-1.288a10.716 10.716 0 0 1 .401-1.772 1.583 1.583 0 0 1 .317.063l.19-.19.02-.506-.19-.127.36-.696h-.423L4.716 9.302l-.992.148-.929.76-1.646-.212.021-.654-.105-.443-.802-.823v-.865l.21-.19.043-.422-.19-.38-.063-.359.105-.169.148.064.401-.443.633-.402.443-.274.232-.316.275-.148.21.127.17-.212.696-.147.211.021v.232l.232-.211.042.422h.127l.085.485.443.021.147-.105v.464l.17.064.063.485.443-.126.4.19s.676.02.718.02.591-.084.591-.084l.633-.316L9 6.559l.232.168.527.233h.317l-.063-.359.443-.127v-.4l.4-.486.444-.084v-.19l-.148-.254.085-.084-.254-.295.021-.19 1.161-.275.106-.274.654-.232v-.17l-.106-.569.612-.38-.57-.95.486-.147a2.032 2.032 0 0 1 .378-.113c.012 0 .02.002.023.007a.973.973 0 0 0 .21.148l.149-.359.316.085.359-.232.148.253-.232.21.57.275.231.211.676-.738v.865l.169-.148.443-.063.232.02-.232-1.054.633-.443.253.485.253-.485M17.862 0l-.157.302-.032.06-.032-.06L17.51.05l-.234.163-.633.443-.136.096.036.162.162.74-.28.04V.597l-.435.475-.507.555-.048-.044-.026-.024-.033-.016-.236-.114.108-.097-.102-.175-.148-.253-.132-.227-.22.143-.266.172-.209-.056-.212-.057-.083.203-.03.074a.294.294 0 0 0-.121-.025 1.578 1.578 0 0 0-.469.13l-.467.141-.307.094.165.274.443.739-.402.25-.146.09.032.167.095.519-.482.171-.108.039-.042.107-.058.151-1.032.244-.172.041-.019.175-.021.19-.012.108.07.082.103.12-.057.056.097.167.07.119-.196.037-.089.017-.057.07-.401.485-.057.07v.302l-.262.074-.217.062.04.222.008.05-.418-.185-.21-.152-1.094-1.035-.127-.12-.157.078-.598.299c-.117.018-.464.07-.526.076L6 5.635l-.354-.167-.085-.04-.09.025-.165.047-.026-.198-.02-.149-.14-.053-.007-.002v-.777l-.395.282-.077.056-.157-.008-.05-.288-.036-.207h-.11l-.02-.197-.05-.494-.287.261-.119-.012-.21-.021-.04-.004-.038.008-.696.148-.088.018-.056.07-.032.04-.024-.013-.121-.074-.126.068-.274.147-.05.027-.033.046-.204.277-.401.249-.636.402-.028.019-.023.025-.282.31-.18-.076-.114.18-.105.17L0 5.81l.017.096.063.359.006.035.017.033.157.315-.025.254-.14.125-.082.074V8.18l.07.073.755.773.081.344-.02.62-.007.227.225.03 1.646.21.107.014.084-.068.875-.716.761-.113 1.897 3.047.074.118h.15l-.17.331-.103.199.186.124.073.048-.011.27-.02.019a1.17 1.17 0 0 0-.241-.035c-.224 0-.317 0-.648 1.981l-.007.047.01.046.263 1.238-.117.605-.057.297H7.14l.073-.073.024-.024.157.074.073.033.08-.014.337-.064.11-.02.057-.095.16-.26h.548l.072-.067.295-.274.095-.088-.017-.128-.002-.019.1.006.111.005.079-.078.343-.343.42 1.662.027.107.097.052.844.45.189 1.001.008.045.024.04.465.759.057.094.109.021.407.078.142.413.058.168h.71l.553.178.026.008.027.002.675.064.117.011.083-.083.064-.064.493.051.226.024.045-.222.17-.83 1.665.036.095.058-.143.205-.04.057-.004.07s-.022.352-.022.396c0 .251.233.293.797.394l.027.005.027-.002.436-.017.118.092.113.088.133-.054.1-.04.042.025.307.176.063-.348c.073-.4.155-.841.198-1.062.183-.02.531-.035.828-.041l.244-.005v-.325l.007-.003.15-.056.012-.16.011-.161.22-.124.065-.037.035-.066.274-.527.19-.366h-.532l-.004-.09.503-.365.275-.199-.272-.203-.172-.13-.034-.217.983.92.223.208.16-.26.37-.599h.211l.05-.022.506-.233.518-.334.184-.12-.096-.198-.46-.954.13-.062.106-.05.03-.112.07-.261.09-.104.126-.149-.113-.159-.464-.654-.075-.105h-.282l-.03-.098-.036-.118-.115-.043-.083-.031-.198-.355.34-.087.135-.035.041-.134c.27-.882.267-.912.15-1.03-.023-.023-.263-.241-.263-.241l-.09-.082-.119.02-.006.001-.023-.133-.01-.066-.043-.052a9.766 9.766 0 0 1-.185-.232c.097-.072.236-.165.357-.241l.08-.05.026-.09a3.571 3.571 0 0 0 .135-.536c.014-.026.037-.056.059-.086a.803.803 0 0 0 .15-.287c.06-.299-.278-.376-.501-.427l-.073-.017a10.62 10.62 0 0 0-.194-.404l-.06-.123c.087-.035.193-.076.287-.11l.083-.03.046-.075.412-.676.03.014.196.089.117-.18.844-1.286.035-.053.005-.063.043-.485.006-.07-.032-.064-.255-.51.267-.252.206-.195-.22-.18-.14-.114v-.566l-.218-.029-.75-.096-.6-.503.24-.139.077-.044.031-.083.17-.443.048-.13-.082-.11-.444-.59-.133-.178-.192.111-.23.133-.154-.164v-.643l-.381.235-.091.056-.094-.11a1.343 1.343 0 0 1-.06-.11 3.594 3.594 0 0 0-.118-.263l-.083-.169-.185.035-.232.042-.132.024-.053.123-.401.928-.02.048v.496l-.273.798-.128.204-.055-.018-.802-.253-.458-.115-.261-.248.01-.082.729-.382.223-.134.312-.187-.286-.225-.486-.38-.098-.076-.12.032-.59.156-.043-.036.2-.372.03-.055V.8l-.204-.038-.262-.05-.473-.472-.24-.241z"/><path d="M11.659 19.706l.464.76.549.105.19.549h.57l.59.19.676.063.147-.148.612.064.211-1.034 1.942.042.38.232-.296.422s-.02.338-.02.38a3.025 3.025 0 0 0 .59.148l.528-.021.19.147.21-.084.148.084s.211-1.16.232-1.224a5.855 5.855 0 0 1 1.034-.084v-.253l.17-.064.02-.295.338-.19.274-.528h-.358l-.022-.464.612-.443-.253-.19-.063-.4.105-.444 1.309 1.224.443-.718h.295l.507-.232.485-.316-.57-1.182.36-.169.084-.317.126-.147-.464-.654h-.338l-.084-.275-.169-.063-.4-.718.653-.168s.233-.76.211-.781l-.253-.232-.253.042-.063-.38a4.366 4.366 0 0 1-.317-.422c-.021-.063.549-.422.549-.422a4.385 4.385 0 0 0 .126-.507c0-.084.19-.274.211-.38.008-.038-.061-.068-.152-.094a5.383 5.383 0 0 0-2.157 5.599 4.133 4.133 0 0 0-3.907 3.919 4.424 4.424 0 0 0-3.648 1.065 5.416 5.416 0 0 0-2.363-1.038z" fill="#ffcb51"/></svg>