<svg xmlns="http://www.w3.org/2000/svg" viewBox="0 0 123 103"><defs><style>.a{fill:#333;}</style></defs><title>aalst</title><polygon class="a" points="67.836 25.377 67.091 25.377 67.836 28.362 68.582 28.362 69.327 29.109 71.564 26.123 75.291 26.123 80.509 23.138 81.255 23.884 82.745 22.391 87.218 25.377 87.964 25.377 89.455 26.123 90.2 25.377 92.436 27.616 93.927 29.855 94.673 28.362 96.164 26.123 96.164 23.884 96.909 23.884 97.655 25.377 99.145 26.123 101.382 23.884 102.873 25.377 104.364 24.63 105.855 26.123 107.345 25.377 108.091 26.123 109.582 26.87 110.327 26.123 111.818 27.616 109.582 29.855 109.582 30.601 108.836 31.348 114.055 38.065 117.782 44.036 116.291 44.783 119.273 49.261 120.018 50.754 122.255 49.261 123 50.007 120.764 51.5 120.018 52.993 120.018 53.739 121.509 54.486 122.255 55.978 118.527 58.964 115.545 59.71 122.255 67.92 119.273 70.906 119.273 71.652 117.036 71.652 115.545 71.652 116.291 74.638 115.545 76.13 115.545 77.623 114.055 76.877 114.055 76.13 112.564 76.13 109.582 75.384 108.091 76.877 109.582 77.623 109.582 79.862 107.345 81.355 106.6 82.848 106.6 84.341 105.855 84.341 105.855 81.355 103.618 79.862 99.891 79.862 97.655 79.116 93.927 77.623 93.182 73.891 90.2 74.638 88.709 74.638 87.964 73.891 76.782 67.174 76.782 69.413 73.8 73.145 72.309 73.891 72.309 75.384 73.055 76.13 73.8 85.087 76.036 85.833 76.036 87.326 77.527 87.326 78.273 88.072 79.018 89.565 80.509 91.804 73.055 97.029 70.073 100.014 69.327 100.014 68.582 100.014 65.6 100.761 61.873 103 61.873 102.254 61.127 100.761 56.655 95.536 55.909 92.551 55.909 91.058 52.927 90.312 50.691 91.058 47.709 94.043 43.982 97.029 41.745 95.536 40.255 97.775 27.582 94.79 26.836 94.043 25.345 94.79 24.6 94.043 23.855 92.551 20.873 94.79 18.636 91.804 17.145 89.565 12.673 89.565 11.927 86.58 10.436 87.326 7.455 89.565 4.473 90.312 3.727 87.326 2.982 87.326 1.491 82.848 0 82.848 0 81.355 0.745 79.862 1.491 78.37 1.491 75.384 2.236 73.891 2.236 72.399 5.964 70.159 2.982 65.681 5.218 64.935 6.709 64.188 7.455 61.949 8.945 61.203 9.691 61.949 10.436 61.203 11.927 59.71 8.2 58.217 9.691 55.978 14.164 52.246 16.4 50.754 19.382 49.261 15.655 41.797 17.145 41.797 17.145 42.543 19.382 41.797 20.127 41.797 18.636 40.304 21.618 36.572 19.382 34.333 19.382 33.587 18.636 33.587 17.891 32.094 18.636 31.348 18.636 30.601 20.873 29.109 21.618 27.616 20.127 23.884 20.127 21.645 21.618 21.645 21.618 19.406 23.855 16.42 27.582 18.659 27.582 16.42 26.091 14.928 24.6 13.435 22.364 13.435 20.873 10.449 22.364 8.21 23.855 7.464 25.345 7.464 26.091 8.21 27.582 8.21 28.327 7.464 30.564 8.21 32.055 7.464 33.545 7.464 38.018 2.239 38.764 2.986 41 0.746 42.491 0.746 43.236 1.493 45.473 2.239 46.218 1.493 47.709 0 49.2 0.746 49.2 1.493 50.691 5.225 53.673 5.971 54.418 8.21 56.655 8.21 57.4 7.464 57.4 6.717 58.145 6.717 57.4 5.971 57.4 5.225 58.891 5.225 58.891 5.971 59.636 5.225 61.873 5.971 61.127 9.703 61.127 11.196 62.618 11.196 61.873 13.435 61.873 14.928 63.364 17.167 63.364 17.913 64.109 20.152 64.855 21.645 65.6 21.645 67.836 25.377"/></svg>