<svg xmlns="http://www.w3.org/2000/svg" viewBox="0 0 124 108"><defs><style>.a{fill:#333;}</style></defs><title>aalter</title><path class="a" d="M56.535,60.7972l-1.13069,1.51049-1.1307-.37762V60.042L48.997,58.90909l-1.8845-3.021-1.5076.37762h-1.8845l-1.88449-.75524h-1.8845L39.57447,54h-1.5076l.7538-3.021-.7538-.37762L25.62918,38.51748l-4.1459-.75524-9.79939-5.28672-2.2614-2.26573L0,24.16783l2.2614-3.3986.7538.37762,3.0152-3.021,3.769-.37762V16.993l2.2614-.75525L11.307,15.1049l2.6383-.75525.7538-1.88811.3769-2.26574,1.8845.37763,6.40729-2.26574L43.34347,9.81818H45.228l1.5076-.75524,1.5076-2.64336h6.4073l6.03039-6.042h1.1307L63.31915,0l.3769,1.51049,1.1307.37762.7538,1.13287,1.1307-.37762.3769,1.13286,1.88449,1.51049,1.1307-.37762,3.0152-.37762,2.2614,1.88811,9.79939,3.021.7538.75524,2.6383,2.64336,5.27659.75525,1.1307-.37763,4.5228-2.64335,3.769-1.13287,4.89969-.37762,2.2614-1.88811,1.5076,1.13286h1.8845l.7538,1.51049.7538.75525-.3769.37762.3769,1.51049v1.13287l-1.5076,1.13286,1.5076,2.64336.7538.37762v1.13287l5.27659,1.88811h1.1307l-.7538.75525v4.15384l1.8845,4.90909L124,32.47552l-1.1307.37763v.75524l-1.8845-.37762-1.1307,1.51049-2.26139,1.51049v1.51049l-1.1307.37762.7538,1.13287-2.2614,3.021-1.5076.75524-1.5076,2.64336-2.6383,1.51049,1.5076,3.021v1.51049l-.7538.37762,2.6383,5.28671,2.2614,1.13287,1.5076,3.021-4.8997,2.26573-1.1307,1.88811,1.1307.75525-1.1307,5.66433h.7538l-.3769,3.77623.7538-.37762.3769.75524-.7538,1.88811V79.3007l1.8845,1.88811-1.1307.75525.7538.37762-1.5076,3.3986h-1.1307l-1.8845,1.13287v.75524h-1.1307l.3769,1.13287-.3769,1.88811.3769,1.13287.7538,4.90909-1.5076,1.51049h-1.1307l-1.13069.75524-2.6383-.37762-.3769-.75524-1.8845-.75525-.3769.75525-2.2614,2.26573-1.1307-.75524-.3769-.75525-.3769,1.13287-1.8845-.37762-.75379-.37763-1.5076.75525-.7538,1.13286-7.1611,2.64336-1.5076-1.13287-.3769-1.13286-1.88449.75524.3769,1.13287-1.1307.37762-.7538,1.88811-.3769-.75524-3.0152,1.88811L72.36474,108l-2.6383-3.77622L67.842,102.33566l-.7538-3.77622-.7538.75525-1.1307-1.51049-1.5076-1.13287-.3769-.75525.7538-1.51049V92.13986l-1.1307-.75524-.3769-1.88812-2.2614-.37762-2.2614-3.77622,2.2614-1.51049h3.3921l3.0152,1.13286,1.50759-.37762.3769-1.88811s1.8845-1.51049,1.5076-1.51049,1.1307-.37762,1.1307-.37762l.7538-.37762V79.3007l1.1307-2.64336-.3769-.37762-1.8845-.37762.7538-.75525-.7538-.75524-1.5076-1.13287-1.1307.37762-2.26139-4.15384-3.0152-.75525-1.1307.75525-3.769-.37762-1.8845-.75525V66.46154l.3769-.75525-.75379-1.51049h1.13069l-.7538-1.51049h.7538l.3769-1.13286Z"/></svg>