<svg xmlns="http://www.w3.org/2000/svg" viewBox="0 0 105 126"><defs><style>.a{fill:#4d4d4d;}</style></defs><title>aartselaar</title><path class="a" d="M47.99532,12.58366h.49142l.16381-.81712h1.14664l.49142-.98055h2.78471l.65523-.65369,2.78471,1.144.32761-1.79766h1.14665l.32761.49027.98284-.98054.98284-.16343.32761-1.63424.65523-1.144,6.87988.6537.49142-.49027.98283.49027v1.144l1.14665-1.144V8.00778h1.47426L71.092,9.642l.16381.49028.98284-.32685.32761.98054,1.14665-.32685v1.144a10.09151,10.09151,0,0,0,1.80187-.49027A7.68122,7.68122,0,0,0,76.00624,9.642l1.14665-.81712.1638-1.47081-.819-.98055-.49142-1.79766L87.96412,0l.49142,2.28794,2.6209,1.144v5.393l-1.80187,3.75876.49142.65369-.49142.81712h.819l1.63807-.32684.49142-.98055,1.31045,1.144.32761-.98054.65523.49027.98284.32685.32761,1.144-.98284.32684v.49028h.98284l.16381.49027-.49142.81712-.16381,1.63424h.65523l.32761,1.144.98284-.16343.32762.49028-.49142,1.63424.49142.49027,1.14664-.16342,5.40562,3.10506-5.40562,6.86381,2.29329,2.28794,1.14665,1.30739L105,35.95331,103.36193,43.144l1.14665,3.26848-1.31045,3.10506L105,54.09339l-3.93136,1.30739H99.103v3.59533h.49142l.16381,2.77821,1.80187.98054-1.47426,2.12452-2.45709-.98055V69.1284l.819,3.26849-4.58659.98054L93.36973,78.607l-.49141.16343-1.63807,4.41245-.32761,2.94163-2.12949-.49027-.819,5.393L86.48986,93.4786l-2.12949,1.96109-2.6209,1.47082,1.14665,3.4319,2.6209-.81712,1.31045-1.79766L88.947,99.52529l-.16381,1.144-4.259,4.249H80.92044l-2.4571-.81712-1.96568-.98055-.98284-1.47081-4.259,6.70038-11.79407,5.393-.98284,1.47082-3.60374,5.393-9.9922,2.94164-12.12169.49027-11.46646-.16342-7.20749,1.79766L11.79407,126l-9.00936-2.94163-2.12948-6.537L0,115.05058v-2.45136l1.80187-.98054,2.94852-.49028,3.60374,1.3074,3.76755.32685,3.27614.98054,2.78471,2.45136s1.96568-.49027,2.12948-.49027.98284.16342.98284.16342l.98284-.65369h.819l5.24181-3.59533,3.76755-2.61479.49142-.81712h2.62091l1.47426-.81712.65522-1.79767H39.805l1.47426-.49027.32761-.98054,1.96568-.16343L39.64119,92.98833,34.727,90.21012l-3.76755-3.92218-1.14665-.16343.16381-3.4319-.819-5.22957-3.27613-8.00779-3.93136-8.33463-.32762-1.47081-5.078-3.26849-.65522.49028L8.84555,52.45914,5.56942,52.1323a14.56926,14.56926,0,0,0-2.4571.32684c-.1638.16343-.819-.16342-.819-.16342l.65523-.81712L1.63807,50.00778l.49142-.65369,1.47425,1.30739.49142-1.63424s.819-.6537.819-.49028a10.39591,10.39591,0,0,0,.32761,1.144l1.47426-1.63424,1.14664-.16342.49142-.81712h.65523L8.84555,46.249,7.20749,44.45136,7.37129,42l-.819-1.63424-.49142-5.22957L4.58658,31.214l.65523-1.3074L4.9142,26.965,3.60374,24.51362V23.0428L1.80187,19.61089l1.47426-.49027L1.63807,13.23735,3.27613,11.93,1.14665,9.96887,5.897,8.8249l.98284-1.63424,1.80187,1.144L9.82839,6.537l1.80188,2.61479,1.14664-.6537-.65523-1.144L15.0702,5.393l.32762.65369,1.31045-1.47081,4.58658,8.8249-.49142.49027,3.60375,5.06615,3.93135,4.249,2.4571.16342,2.4571-2.94163,1.47426.81712,1.14664-1.79767.16381-.98054h1.31045l.16381-.49028h.819V17.323l.65523.32685.49142-.6537H39.805l1.47426.81712.16381.81712.32761.16342.16381-1.30739,2.12948.32685.65523-.49027.16381-.98055.98283-.49027-.32761-1.79767,2.78471-.49027.16381-.49027-.819-.16342Z"/></svg>