<svg xmlns="http://www.w3.org/2000/svg" viewBox="0 0 124 102"><defs><style>.a{fill:#333;}</style></defs><title>Aerschot</title><path class="a" d="M64.35941,24.94208,65.408,22.18533l.78647-.26255.52432-1.444,1.31078-.52509,1.1797-.78765,1.8351-.39382,1.704-1.31274h1.44186l.91755-.65637,1.44186.39382h1.04863l3.53911,3.15058,1.57294,1.444,1.1797-.65637,3.408-2.75676.78647-.78765,1.57294.26255,1.44186-1.05019,1.83509,1.31274,2.09725-.78764-.26215-1.18147,1.57293-1.05019,1.44187.26254,1.704-1.18146L98.96406,12.471l-.65539-.91892.39323-2.10038,2.49049-3.15058,2.09725-.13128L104.86258,2.888l2.09725-.78764,2.62157.26254L111.80973.78764,114.43129.5251,116.52854,0l1.44186,1.05019.65539-.78764,1.04863.39382L120.723,0l2.35941.26255L124,2.10039l-1.1797-.13128L124,4.33205l-1.96617,1.70656.65539,1.70656.13108,1.444L120.723,10.23938l.52432.39382-.13108,1.57529.91755,2.36294-1.31079.78764.26216.78765h.52431v.52509l-.13107.65638-1.04863.78764,1.57294,1.57529-.91755.78764.78647.78765-2.35941,1.31274,1.17971,4.85714-.39324.39383.13108,1.444h.65539v1.444h-.65539l.91755,1.57529h-.78647l-.65539.26254-.26216-.78764h-.78647v-.39382l-1.31078.26255-.26216-.5251-1.57294.5251,3.408,9.32046-.65539.26255a7.50084,7.50084,0,0,0-.91755,1.05019c0,.13127-1.17971,2.10039-1.17971,2.10039h-.91754l.13108-1.57529-.52432-.39383a4.21285,4.21285,0,0,1-.39323.65638,5.78485,5.78485,0,0,0-.26216,1.31274l-.91755.65637-2.09725.39382-.52431.78764.13108.91892-2.22833.78765-.78647-1.18147-1.17971-.65637-.78646.13127-1.31079.5251-1.57294.26255-1.1797,1.83784-.78647-1.31274h-1.04863l-.78646,1.57529-.39324-.65638-.91755.26255.65539,1.18147-.65539.39382.26216,1.18147.91755.26255H100.537l1.31078-.91892.52431,1.70656-.13108,1.0502s.91755,2.62548.91755,2.75675a13.7492,13.7492,0,0,0,1.04863,1.444l-.26216,1.83784-1.1797.91891.13108.5251h1.1797l-.39323,2.36294,1.1797-.5251,1.04863,3.5444h1.04862l.13108.78765.78647.13127-.13108.91892,1.44186-.39382.13108-.91892,1.31078-.13128.39324.65637,1.04862-.13127,2.62157-1.70656,1.83509,5.77606,1.57294,6.695-.13108,2.10038,1.96618,4.332.65539,1.70656.13107,2.49421,1.17971,4.98842L113.12051,95.305l-3.277,1.57529.13108-3.28185-1.31078-3.01931-4.19451,1.18147.13108.91892-.65539,1.96911-1.04862-.39382-1.04863,2.23166,1.44186,1.83783h-2.22833l-.26216,1.18147H99.35729L97.5222,97.40541l-1.31078,1.18146-.91755-.65637-.78647.78765-.52431-.5251-.26216.65637L91.23044,97.668H89.65751A12.8894,12.8894,0,0,1,88.74,98.98069c-.26216.26255-1.44186.78765-1.704.5251s-.91755-1.31274-1.31078-1.18147a13.74819,13.74819,0,0,1-1.704.26255H82.4482l-1.31078-.39382h-.91755l-1.31078,1.444-.78647-1.70657-3.67019.65637-4.06342.13128-.26216.39382-.26216-2.62548-6.29175-.26255V95.04247l-9.69979-3.28185-6.0296-1.18147-2.75264-.26255L41.5518,90.973l-4.8499,1.96911-1.96617,1.70657-1.8351,1.444s-3.14587,1.31275-3.27695,1.31275-4.8499.65637-4.8499.65637L21.23467,97.668l.52432.91892h-.78647l-.26216-.65637-1.57294,1.31274-.13108.78765-.65539-.39382.52431,1.83783-3.53911.26255-1.31078-.52509L9.962,102H7.60254V96.61776L7.34038,94.3861l-2.62156.39382v.5251l-.91755.26255L2.35941,91.89189l3.80127-1.70656L4.1945,82.7027,3.408,82.17761l.39324-1.18147.52431-.78765L1.31078,77.583.39323,75.87645l.13108-3.01931L0,71.93822l1.704-.91891.65539.65637v-1.444h.39323l.26216.65637,1.1797-.13127.26216,1.444L4.981,71.807l.13108-2.10039h.26216l.13108,1.70657.78646.26255.13108-1.444,2.09725-.5251,2.22833.26255.39324,1.0502.78647-.26255-.52431-.91892,1.704-.39382,2.49049,1.31274L17.04017,69.444l.78647,1.57529.91755-1.31275L20.055,68V66.81853l-.13108-1.31274,1.31078-.26255,1.31078.91892.91755.5251-.39323-.78765-1.44186-1.444s.52431-1.18147.91754-1.18147,2.09726-.26255,2.09726-.26255l.91754-.65637-.78647-.65637-1.83509.5251,1.04863-1.70657,1.704.78765.39324-.26255-.39324-.78764,1.96618-2.49421h1.44186l-.91755-2.10039-1.96618.65637.6554-1.31274s.78647-5.77606.65539-5.77606-1.31079.13127-1.31079.13127l.13108-1.444-.39323-2.23166-1.44186.26255-1.17971,1.18146-.26215-2.36293-.26216-4.0695-1.57294-2.23166.26216-1.70656.91755-4.20078,4.71881.5251.39324-.26255v-.39382l3.80127-.5251.91754.91892.91755-.26255.13108-.65637,1.83509-.65637,1.704-1.18146,1.04863-.13128.39323-.52509.78647,1.18146,1.1797.13128,1.8351.26254,2.35941-.91891,2.09725.13127.91755-.78764.65539,1.05019,2.49048-.39382,2.09726.52509.91754-1.444,1.44186-.39383-.26215-.65637,1.44186-1.31274,1.31078.13128.78647-1.70657,2.09725-.52509Z"/></svg>