<svg xmlns="http://www.w3.org/2000/svg" viewBox="0 0 126 130"><defs><style>.a{fill:#333;}</style></defs><title>Affligem</title><path class="a" d="M75.088,17.9561l1.991,6.5554,9.67043,3.42021L88.456,29.92683s3.41309.85505,3.69752.85505,3.41309-.57,3.41309-.57l5.40406.85505,3.69752.57,1.1377,2.28014.56885,7.41045,2.84424.57.85327,1.99513,5.40407-2.28014.85327,1.14007h1.991l2.55982,2.56515,3.12867,5.13032.85327.855-11.94582,6.84042.85327,1.99512-2.84424.855.56885,1.99513,1.42212-.57,2.84424,5.41533,1.70655,7.98049.28442,5.70035,3.69752,7.41045a17.45986,17.45986,0,0,1-1.1377,1.71011,15.30166,15.30166,0,0,1-2.84424.85505l-.85327-.57-.56885.85505,4.26636,2.56516-.28442,1.42508,5.68849,8.26551v1.99512L126,108.30663l-1.70655,3.42021-1.13769,4.56028-1.1377.855v3.13519l-3.12867,1.99513-3.41309,5.13031h-1.42212l-1.70655.57s-2.2754,1.71011-2.55982,1.99513-9.95485-1.42509-9.95485-1.42509l-1.991-1.71011-8.81716,1.14007L81.061,123.98259l-11.6614-.57-3.41309,1.14007-3.98195.85505-2.27539,1.42508-3.41309.57-1.42212-1.42509-.85328.285-2.27539-.85505-.85328.85505-3.12866-.57L46.93,124.55263l-1.991,1.14006-2.55982-.285-6.25733-1.14007-1.1377-2.56516-1.991.285-1.991-.85505-1.1377.285-1.70655-.285v-1.42509l-1.42212.285-2.27539.855v-1.14007l.85327-.285.28442-1.7101v-2.28014l-.85327-.285.56885-2.85018-3.69752-2.85017s-7.11061,0-7.11061-.285-4.55079-5.41533-4.55079-5.41533L5.97291,94.05576,0,86.93032,7.67946,81.515l7.11061-2.28014,1.70654,1.14007.85328-1.14007.85327,1.14007.56885-1.42509,1.1377,1.42509,4.55079-6.27038,2.55982-2.28014,1.42212-.285,11.377-7.98049,4.55079-4.27526-3.98194-4.27526-.56885-3.42021A18.428,18.428,0,0,0,37.544,49.023c-.28443,0-3.41309.285-3.41309.285l-.56885-4.8453-4.26637-1.42509L27.02032,31.35192l-.56885-10.26063L24.74492,19.6662l-.56885-4.56028,4.55079-1.42508,1.991-4.27526L34.9842,5.70035,34.69977,0,64.56433,17.9561l.28443.85505,4.26636-.285L75.088,16.531Z"/></svg>