<svg xmlns="http://www.w3.org/2000/svg" viewBox="0 0 103 134"><defs><style>.a{fill:#4d4d4d;}</style></defs><title>Aiseau-Presles</title><path class="a" d="M75.26139,74.94225l-9.58614-2.64742-.81584,2.03648-1.22377,1.22188,1.22377,3.05471,2.0396,1.01824.40792,1.42553,2.85545,1.83283,3.0594,4.68389,2.03961.81459.81584-.4073-.40792,1.01824,1.83564,1.42553,2.44753,1.83283L82.4,93.06687l4.07921.81459,2.44752,2.64742h.81584v7.53495H87.90693l-1.0198.61094-2.65149.20365L80.76832,106.304l-4.69109,1.62918-1.63169.4073-2.0396,1.42553,1.83564.40729,1.83565,3.05471,1.0198,1.42554-1.22376.81459-.40792,1.42553.204,2.24012s-2.44753,1.42553-2.65149,1.42553-3.87525.4073-3.87525.4073H64.65545l-6.11882,2.44376-2.24356,1.42554-5.71089,2.44377H49.35842l-.61189,1.01823-2.0396.61094-1.63168,2.03648L43.2396,134l-6.32277-3.66565-4.69109-.4073-.81584-2.44377.61188-2.64741,3.05941-1.83283-.204-3.25836.81584-.40729,2.44752-4.073.204-2.44377L36.101,109.9696l-.204-6.72036L37.73267,95.307l.40792-9.57143-.61188-2.64741-.81584.20364-1.0198-2.24012,1.22376-.61094-2.65148-3.462.40792-2.24012L26.92277,63.538l-2.0396.20365-2.65149,1.01824-.81584-.4073-2.65148-2.03647L12.03366,60.076H8.7703l-.40792-1.42553H7.54653L6.32277,56.81763l.40792-.61094-.81584-2.44377,2.24357-1.83283V48.26444L6.73069,47.2462l-.81584,1.01824L0,45.00608l.61188-1.22189v-7.7386l2.44753-2.85106.61188-2.24012,4.89505-2.85107,2.85544,1.83283,1.83565,1.01824a37.23,37.23,0,0,1,3.26336,2.64741c0,.20365.204,2.85107.204,2.85107l1.0198.40729,3.67129-1.42553,3.05941.81459,2.65148,1.01824,3.87525.40729a15.564,15.564,0,0,1,1.83564,1.83283,22.36775,22.36775,0,0,0,1.83565,2.85106A27.16936,27.16936,0,0,1,35.897,44.80243l2.24356.81459,3.26337.81459,1.63168-1.62918,1.22377-5.09118-1.63169-8.96049-.40792-4.48024S40.79208,24.234,40.38416,24.234s-5.099,2.24012-5.099,2.24012H33.4495l-1.0198-1.83282,1.0198-4.68389,7.13862-6.51672,8.97426-.81459,4.69109-3.462,2.0396-.20364,2.24356-2.24013L55.68119,3.462l2.0396-2.03648L62.61584,0l1.0198.81459,1.22377,3.25836-.204,3.05471-1.22377-.81459.204,2.64742L62.41188,10.386l-1.83564.61094.40792,1.42553,1.63168.61094,1.83565-.40729L65.87921,14.459h2.44752l.40792-2.85107,1.22377-.81459L73.83366,14.459l1.42773,2.64741,1.0198,1.62918,4.07921,1.22189,1.42772.20364,6.52673,2.24013,1.83565-.20365,4.28316-3.462,3.05941-2.85106,1.0198.40729,1.83564,2.85107,1.42773,3.25836L103,26.67781l-3.46733.81459L95.2495,31.15805,92.802,51.31915l-2.24356,2.44377,1.0198,2.03647-3.46733.20365-1.42772,2.64742V63.538l.204,3.05472-2.44753-.611-2.85544-.61094-1.42772,1.22189-2.65149,1.42553-2.44752.81459s1.63168,3.25836,1.42772,3.66565Z"/></svg>