<svg xmlns="http://www.w3.org/2000/svg" viewBox="0 0 132 109"><defs><style>.a{fill:#333;}</style></defs><title>alken</title><path class="a" d="M61.00315,24.80115l.41641.41682.2082-.83365h.62461l1.041-1.04206.6246.83365,1.66562-.83365,1.87381,1.25047,1.87382.41683.83281-.83365,2.082.83365,3.123,1.87572h1.041l1.45742.20841a15.90608,15.90608,0,0,0,1.66561,2.29254h1.041l.83281.83366.4164.83365.62461.41682,1.041,2.91779,2.082,2.08413,1.041,1.25047H87.8612l1.45741,2.08413.2082.83366h.83281l.62461.83365,2.49842.20841,1.45741,1.04207h1.24921l2.49843.62523.4164-.83365,1.041.20842v1.87571l1.87382.62524,1.45741.83365h.62461l.6246-.83365,1.041.20841,2.49842.62524h1.45742l.4164-.41682,1.041-.62524,2.082-.20841,1.66561,1.04206v.83365h.41641l.4164-.41682h1.041v1.45889l4.37224-.41683.41641.62524,3.95583-.20841v.83365h-1.041l-.2082.83365,1.24921-.20841.62461,1.6673v5.41874l-.62461.62524.62461.62524v5.21032l1.24921,2.501,1.87382,3.95985,1.45741,4.58508L132,82.32314l-6.24606,2.08413-13.94952-.83366-2.082.83366-1.45742.20841-.6246.62524-2.49842-.83365-2.91483.41682-5.62145.83365-6.45426.20842-3.74763,1.87571-2.70663,2.29255L83.489,92.327l-1.24921,1.45889-.83281,2.70937-2.49842,2.501-.83281.41682-.62461,1.66731h-3.123l-4.58045,3.75143-4.58044.41683-1.45741.62523.2082.62524-1.041.41683-.4164-.83365-3.74764,1.25048-1.24921-.83366-5.41325,2.08413L48.511,109l-6.45426-.41683L31.64669,109,26.858,107.54111l-.4164.41682-2.29022-1.25047-2.29022-2.501-1.45741-2.70937-2.082-.83365-2.29022-.41683-2.91483-2.70937L11.0347,93.369,8.32808,91.07648,6.45426,89.61759,4.164,86.283l-1.041-.20841-1.45741-2.501v-1.6673L0,83.15679V80.86424L1.041,80.239l.2082-3.75144.62461-2.08413v-3.543l1.041-.83365.2082-.83365,1.24921-.20842,2.082-1.25047.4164.41682L8.11987,67.109v-.83366l-1.041-1.25047-.4164-6.66922,1.87382-2.70937,3.74763-2.501.41641-1.04207,2.49842-1.25048.2082-1.25048h1.45741l1.24921-1.6673,1.66562-.41683,1.66561-1.25047.62461-2.29255,1.24921-.41682.41641-1.45889-.83281-1.45889.6246-2.29255,1.45742-2.08413-.83281-1.25048-2.91483.41683-1.24921-.41683-1.87382-1.45889-1.66561.41683-1.87382-.20841-1.66561.41682-2.91483-.41682L7.49527,31.47036l.2082-3.75143.4164-5.00191-.4164-3.1262,2.082-2.50095,2.91483-1.25048,2.49842-2.08413,5.20505-1.45889,2.70662-.83365L25.817,9.587l2.29023-1.66731,2.082-3.12619H33.1041l1.45741-3.1262L36.22713.41683H38.101L39.142,0l.8328,1.45889,1.66562-.41682,1.24921,2.91778h1.041l.83281,1.87571,1.87381-.20841V6.66922l.41641.20841.2082,1.25048.4164.20841.20821.83365h.6246l1.041,1.25048v.83365l-.2082,1.04207.83281,1.45889L47.47,14.3805l.62461,1.04206s.6246,1.25048.4164,1.45889.83281,1.45889.83281,1.45889l.83281.41683.4164.83365h1.24921l.83281.20842V20.8413l.6246,1.25048,2.082-.20841,4.164,2.08413h1.041Z"/></svg>