<svg xmlns="http://www.w3.org/2000/svg" viewBox="0 0 110 133"><defs><style>.a{fill:#333;}</style></defs><title>Alveringem</title><path class="a" d="M47.5619,39.46154l2.72381-1.67033-.419-1.46154,2.30476-2.92308,1.25714-1.044V30.69231l.62857-1.044V28.18681h2.09524l-.419-1.044,2.72381-3.75824,2.51429-3.54946-.62857-2.71428,2.93333-3.75824h1.25714L65.581,11.27473,67.46667,10.022l.419.41758h5.02858l6.70476-5.84615L80.87619,6.055V7.51648l2.09524.41759.83809-2.08792,1.04762.83517,1.88572.41758V5.63736l1.67619-1.46154-.62857-1.46153L89.88571.41758l.419,1.044L91.77143,0,92.4,1.46154,93.2381,0l2.51428.41758.8381,1.46154-1.88572.62637.62857,1.67033L93.65714,6.47253l.419,1.25274,2.09524,1.044,3.5619.20879,5.02857,1.044-.62857,1.25275.62857,1.67032-.83809,1.46154,1.04762.83517,1.04762,1.044L107.06667,19l.419,1.25275,1.46667,2.71428-.83809,1.46154L110,26.30769l-5.65714,2.29671-2.93334,2.08791-2.30476.62637L97.6381,33.40659l-3.14286.41759-1.67619,1.25274H91.77143V33.82418l-3.35238,1.044-3.77143,1.25275.62857,1.044.20952,1.25274-.20952,1.044.8381,2.08791-.62858,2.08791v3.54945L83.6,49.06593l-1.04762.41759-.20952-1.044L79.2,50.10989l-1.25714.83516L71.2381,52.40659l.419,2.29671-.20952.83516.62857,1.044.62857,2.71428-1.04762.41759.8381,1.67033h1.04762l.20952,1.044s-1.04762.41758-1.25714.83517a9.36478,9.36478,0,0,0-.419,1.67033L71.2381,65.978l-.20953.83517-2.30476.62637A24.9631,24.9631,0,0,0,65.581,69.31868c0,.20879.20953,1.25275.20953,1.25275H64.74286l.20952,2.2967h2.72381l1.25714-.62637,2.09524,2.08791-.54857,1.192,4.32,6.95085L78.781,91.033l-1.04762,1.46154-.62857,1.25274.419.83517L78.781,95l-.419,1.67033H77.31429l.62857,1.67033-.62857.41758-.8381,2.08791,1.25714,1.46154-3.14285,1.25275,1.25714,2.71429-3.14286,1.46153-.20952,2.08792-1.67619.41758-1.88572,1.87912-2.72381.83516H64.53333L63.27619,114,61.6,114.62637l.8381,2.29671H60.55238l-3.5619.62637L54.05714,119.011,52.381,121.93407l-1.67619.83516L48.4,124.85714v1.25275l-.8381.62637-.62857,1.67033-.83809.83517c-.20953.20879-2.30476,3.13187-2.30476,3.13187L40.64762,133v-1.46154l-1.67619.41758-.62857-3.967v-2.92308l-.8381-.62637,1.25714-1.87912.20953-4.38462-.20953-2.08791-.62857-.41758-.62857-3.13187.62857-2.50549-1.25714-3.34066.419-1.46154-.419-1.46154-1.46667.20879-1.25714,1.044-1.04762,1.87912-.419,1.25275-2.30476.62637-.62857,1.87912-2.51428,1.044-3.14286,1.67033-.41905,1.04395-2.51429,1.25275.8381,1.044-1.88571,1.04395-1.88572,1.044v1.46154l1.04762.41758-1.04762,1.46154-1.67619,1.25274-1.04762.2088v1.25274S13.40952,124.022,13.2,124.022a34.71788,34.71788,0,0,0-2.72381,2.92307L8.8,125.27473,7.75238,122.978s-1.25714.62638-1.46667,1.044-2.51428,1.04395-2.51428,1.04395l-1.67619.2088L.8381,124.022l-.419-1.46154L0,120.89011l2.51429-1.46154L4.4,117.54945l1.04762-2.08791,1.04762-.62638,1.04762-2.2967,2.51428-1.67033,1.25715-1.46154,3.14285-1.46154,2.30476-2.08791V103.978l.62858-.20879-.8381-3.34066.20952-1.04395,2.30477-.2088,1.04762-.41758,3.14285-.83516,1.25715-.20879L25.981,95.41758l-1.04762-3.13187-1.46666-1.46153L21.581,86.022,22,84.35165l-2.30476-2.71429-1.04762-4.38461L17.6,74.956V73.91209l-5.02857-5.42857L13.61905,67.022l-1.67619-1.67033.419-1.25275-1.46666-1.25275.62857-2.08791-1.46667-.20879,1.46667-3.34066,1.88571-2.2967L13.2,53.033l1.88571-2.71429-.419-3.34066,5.02857-1.87912.83809-1.67033,8.8-5.011L31.6381,36.956l1.46666,1.25275.62857,1.67033h.8381L35.2,42.17582l3.35238.41759,1.25714-.62638L42.95238,39.044l1.25714-.2088L44.8381,38l.419.62637L46.51429,38Z"/></svg>