<svg xmlns="http://www.w3.org/2000/svg" viewBox="0 0 102 137"><defs><style>.a{fill:#333;}</style></defs><title>amay</title><polygon class="a" points="70.646 4.957 74.218 4.758 74.218 0 76.202 1.983 78.584 2.974 78.584 4.164 81.759 6.344 88.109 13.284 90.093 14.275 92.872 21.809 95.253 23.792 94.459 24.981 94.459 25.973 93.665 27.162 96.642 32.912 99.619 38.463 102 45.799 100.214 47.583 98.428 47.583 96.444 46.79 94.658 51.152 96.047 52.54 96.047 53.729 96.84 55.514 86.72 61.858 82.949 65.427 82.156 68.599 81.957 73.159 82.949 77.124 83.743 79.702 85.728 83.072 87.712 86.839 88.903 89.813 90.49 90.805 89.3 92.192 90.689 94.373 90.887 96.753 91.879 98.735 92.078 100.123 93.665 102.304 92.673 103.692 90.887 105.476 89.498 107.062 89.3 111.226 87.712 114.398 86.323 117.57 87.712 119.156 89.696 120.544 90.689 121.932 89.101 121.932 87.712 124.906 85.728 125.302 79.973 128.276 76.599 131.25 73.226 133.828 72.432 136.405 62.907 137 64.097 135.612 60.525 130.656 60.922 128.276 57.946 123.716 54.175 123.122 52.191 123.716 44.65 114.596 45.642 109.243 45.245 106.269 37.903 104.683 29.37 101.709 17.86 99.33 11.113 98.735 3.572 99.33 0.794 98.537 0.794 94.77 2.183 93.184 2.381 91.399 0 86.443 1.984 80.693 1.191 78.909 1.588 76.926 2.381 74.151 5.16 72.763 7.938 73.556 10.914 71.573 14.288 70.978 17.463 69.789 19.051 66.616 22.226 65.03 22.027 62.651 21.829 58.686 25.004 55.315 27.981 51.548 27.584 49.368 29.965 47.187 29.965 44.609 27.782 44.609 27.187 41.635 30.362 39.653 27.782 39.256 27.385 36.084 28.774 32.119 30.759 31.326 31.751 29.145 32.148 29.74 35.323 26.567 36.315 27.36 35.72 28.946 38.696 32.317 44.65 28.352 46.039 28.946 45.84 25.378 48.619 23.593 49.809 25.378 54.175 25.576 53.183 24.188 62.907 19.033 67.471 15.068 70.646 4.957"/></svg>