<svg xmlns="http://www.w3.org/2000/svg" viewBox="0 0 132 115"><defs><style>.a{fill:#333;}</style></defs><title>ambleve</title><path class="a" d="M81.21463,10.26412l3.35771-1.67578,2.51828-.41894,1.67886-.20947L91.28776,9.6357l-2.51828,2.09472a12.71594,12.71594,0,0,0,1.469,2.09472c.20986,0,2.09857.41894,2.09857.41894l1.04929,1.25683,2.09857.20947,1.88871-1.25683,1.88871,1.88525L103.2496,18.643v1.4663l3.77743-1.04736,1.88871.20947,5.66614,4.81785,5.24642,10.47359,1.67885,5.2368h.62957l2.51829,1.67577-.20986,1.04736.20986,1.4663,1.67885,3.14208v1.67577l-.62957,1.67578-1.25914,2.30419L123.81558,55.51s1.25914,1.4663,1.04928,1.88524a12.40305,12.40305,0,0,1-.83942,1.25683l-2.09857.83789-.83943,1.4663s.20986,1.88525.20986,2.09472a6.518,6.518,0,0,1-.83943,1.25683l.41971,2.51366.62957,2.09472.83943.41894v2.09472l-.83943,1.88525s.20986,1.88524.20986,2.09472,1.04929,2.51366,1.04929,2.51366l1.88871,1.04736,1.67885,2.72313.83943,2.51366,1.469,2.09472,1.88871,1.4663a13.21445,13.21445,0,0,0,.83943,1.88525L132,90.28233l-1.04928,1.4663h-1.04929l-2.51828,2.09472-.41972,1.04736-4.82671-2.51366-.83942.62841h-1.25914l-.62957-1.4663-1.67886,2.30419h-1.04928l-.62958,2.51366.62958,1.88525-1.04929,4.18943h-1.04928v2.30419a12.8276,12.8276,0,0,1-.83943,1.25683,5.3212,5.3212,0,0,0-.41972,1.46631l-1.469.41894-1.469-2.09472-.41972-2.09472-1.25914-2.09471-2.09857-4.39891-2.09857-.41894-.20985-1.46631.41971-1.4663-.20986-1.4663-1.04928-1.25683-.20986-1.4663-2.72814-1.25683-2.72814-4.81786-.41971.419V85.255l-1.25914.83789a11.7912,11.7912,0,0,1,.20985,1.4663c0,.41894.20986,2.09472.20986,2.09472l-.83943,1.25683L93.806,90.70128l-.62957,1.25683-1.04928,1.25683a4.32077,4.32077,0,0,0-1.88872,1.04736c-.41971.62841.41972,2.72313.41972,2.72313l2.30842-1.04736,1.67886.41894.62957,1.25683-2.51828,1.25683-2.09857-1.04735-2.09857.20947H86.67091a8.434,8.434,0,0,1,0,2.30419,14.60952,14.60952,0,0,0-.62957,2.51366l-3.98729,1.67577,1.04929,2.51366-.62957,1.46631.62957,1.4663-.83943,1.88524.83943.419V115l-3.35771-1.04736-3.98728-1.67577s-1.67886-.20947-1.88872,0a8.35373,8.35373,0,0,0-.62957.83788l-.62957.41895-1.25914-1.4663h1.04929l-.20986-.83789-1.469-2.09472V107.878l1.469-3.35155-2.51828-2.09472-1.04929.62842H66.7345l-.83943-1.67577-.41971.62841-2.51829-1.88525-1.04928-3.14207-.62957-1.67578.41971-.83788L60.43879,92.796l-4.19714.20947L50.1558,90.70128l-.83942-1.25684s-.83943,3.7705-.83943,3.98-.62957,2.51366-.62957,2.51366l.62957,1.67577-2.938,4.39891-2.30843-1.04736-4.19713.83789s-.83943-1.25683-1.469-1.25683-4.82671-.41895-4.82671-.41895L32.318,97.61384l-1.469-2.09471-.83943-.20948L29.38,90.07286,26.86169,87.5592l-1.67886-.83789-.41971,1.04736-1.88872.20947L21.61526,86.0929l-2.30842-1.25683-3.35771-.20948-1.67886.20948L9.65342,72.6867s-3.14786-6.70309-3.35771-6.91257S5.876,59.49,5.876,59.49L0,51.949l2.09857-.20947,2.72814-2.72314L5.876,46.08379l2.938-1.04736,1.04929-3.35155,1.469-1.04736-1.469-3.561,2.30842-.83788,3.56757-3.98.62957-1.04736a12.5417,12.5417,0,0,0,2.30843-1.25683c0-.20947,2.938-4.18943,2.938-4.18943L26.442,23.67031s1.88871.41894,1.88871.62841.83943,2.72314.83943,2.72314L30.2194,25.765l3.14785-.62842.41971-3.14207-1.25914-2.93261,2.51828-.62841,2.51829-2.30419L41.34181,15.082l3.77743-3.14208h2.09857l4.19713-.41894,2.51829-3.561,1.04928-2.09472,2.30843-1.04736,2.09857.41894V2.9326l.62957.419,1.469-1.04736.20985-1.04736L61.90779,0H63.7965l.41972,1.4663.41971.62842V3.98l.62957.20948.20986-2.72314.41971-.41894L68.83307,0V.83789l2.30842,1.4663,1.04929,2.51366,1.469-1.04736h2.938l1.67886,1.4663L77.22734,6.28415,81.00477,7.541Z"/></svg>