<svg xmlns="http://www.w3.org/2000/svg" viewBox="0 0 132 87"><defs><style>.a{fill:#333;}</style></defs><title>andenne</title><path class="a" d="M85.57009,2.58862l.78505,2.251h.6729V5.74l-1.458.90039L84.6729,5.17723s-1.00935.11255-1.00935.2251S84,6.64036,84,6.64036l.6729.78784,1.45794.33765,1.68224,2.13842,1.1215,2.02587-2.57944,1.68823.33645.33765,1.12149-.33765,1.1215,1.80078-1.57009.67529L87.028,17.10737l1.90654,2.92627,1.23364-.2251.4486,2.47607.6729,1.238,1.57009.67529.56075.78784,2.243-.78784.56075,1.12549,1.23364-.33765.6729,1.01294.6729-.2251,1.68224,2.92626s1.00935-.78784,1.00935-.45019v.78784l1.00934-.67529.56075-1.68823h.2243v1.01293l4.486-1.91332.785-1.35058.56075-.2251v.33765l3.70093-1.46313L112.486,21.947l.56075-.11255,1.34579.4502.8972-.78784,2.91589-1.46313,1.23364,3.2639-3.14018,3.26391-6.50468,2.251v1.46313l1.5701,1.91332,1.00934,2.58862.33645,2.251-.56075,2.70116-.2243,2.13843.4486,1.68822,1.23365.78784,1.12149.33765,1.00935,1.12548.785.4502,1.7944-.56274,1.12149.56274,1.90654.33764.4486-1.01293,1.1215-.33765,1.79439-.90039h1.23365l1.57009-.90038.4486-.11255v1.01293l1.34579,1.35059-1.12149,1.238-5.15888,3.489.33645,1.01294,1.45794,2.58862h1.57009l.785,1.12548.33645,2.02587-.4486,1.91333,1.1215,1.238.11215.67529L132,63.02717v2.92626a22.96624,22.96624,0,0,0-3.81308,1.57568c-.4486.45019-4.71028,3.15136-4.71028,3.15136l-.2243-.6753-3.81309,3.26391-6.39252-.45019-3.58879,2.251-.89719-.4502-.6729.78784-.4486.90039-1.23364.56274-1.45795.90039-2.243,2.02588.2243,1.57567L90.28037,87l-.44859-2.13842-2.46729-1.12549-2.46729-3.489-1.5701-2.92626-1.79439-2.251-1.79439,1.01293-1.68225-2.70116-2.91588-.11255-2.35514-1.238-.6729-.78784-.56075.78784L71.215,73.83182l-3.028,2.13843L45.757,76.75809l-4.82243,3.60155a17.21912,17.21912,0,0,0-3.028.78784c-.11215.22509-.33645.78784-.33645.78784l-3.58878,1.46313-1.1215-1.238L31.514,80.58473l-.8972.2251-.785.78784c-.11215.11255-1.00935-.33764-1.00935-.33764l-2.80374-2.81372L24,78.784l-2.13084-.90039-.56075.90039-1.45794.2251-.56075.56274-2.35514-.33765,1.68224,2.251-1.68224.67529-1.23365-.45019-4.93457-.11255-1.1215-.56274S9.19626,80.022,8.972,80.022a7.127,7.127,0,0,0-1.00934.2251,14.63484,14.63484,0,0,0-1.68225-.56274A23.6305,23.6305,0,0,0,3.81308,81.26V82.273l-1.68224.67529-.56075-1.46313L0,79.23415l1.45794-2.251H2.46729l1.1215-2.36352.33644-.56274.11215-2.251,1.5701-1.91332L3.70093,68.09185,3.028,67.9793l-2.243-5.28978,1.90654-.90039,3.14019-4.50194,1.00934-.67529-.2243-1.238h2.243l.4486-1.238L11.215,53.01035l1.1215-2.58862.89719-1.91332-.22429-1.01294,1.12149-1.80077-.2243-1.35059.56075-1.238-.6729-.90039-1.00934-3.489,1.00934-.90039,1.1215-1.57568-1.3458-1.57568V32.63907l-7.85046-4.1643L2.35514,25.436l2.69159-1.57568.78505-.45019,1.00934-1.57568,1.1215,2.47607,3.25233-.56274,1.23365-2.02588.6729-.45019.11214-1.12549,1.5701-.11254,3.14019-2.70117,2.35514-.11255,1.79439-.78784.56075,1.238L24.785,16.54463l1.79439.78784,1.90654-.78784,2.80374,4.61449,1.68224-.78784.33645.33765,1.3458-.56275,1.00934-.90038v-.90039l1.57009-.33765L38.243,19.35834l.11215-1.35058.6729-.56274.67289-1.238,1.23365-1.12549,1.34579-.33764,1.00935-.78784-.33645-1.238.56075-.45019L41.71963,8.44114l.785-.78784.8972-3.15136,1.34579-1.91332L47.43925,0,65.04673,1.46313Z"/></svg>