<svg xmlns="http://www.w3.org/2000/svg" viewBox="0 0 124 88.72414"><defs><style>.a{fill:#333;}</style></defs><title>anderlecht</title><path class="a" d="M63.66667,6.019l1.11111-.66877,6.66666.66877V2.45217L73,3.67826l1.55556-.22292,1.66666.78023,3.44445-1.7834L82.44444.33439V.78024l2-.78024,1.88889.55731,3,1.449s-.22222.11147.55556.55732a23.6845,23.6845,0,0,0,2.66667,1.11462S96,5.3502,96.33333,5.46166s6.33334,3.23241,6.33334,3.23241L107,10.58894l1.11111,1.67193,1.77778-.33438,1.77778,1.00316.22222-1.67194L113,10.14309l.44444-3.23242,1.66667-1.89486,2.66667-1.00316.55555,2.898V7.91384l2.55556-.44585L124,20.732a7.66738,7.66738,0,0,0-2.33333.55731,34.188,34.188,0,0,1-3.11111,1.7834l-.22223,2.00633-3,2.898-1.11111,1.22609.11111,1.56048-.77777,1.00316-.22223,1.33755L111.44444,35.668,112,36.22531,110.11111,38.566l-4.44444,1.56047-.88889,2.56364-1.44445.78024-1,1.449-1.66666,2.22925-.77778.8917-1.44445,4.90435-1.33333,1.11463-1.22222,2.22924-2,1.7834-3.33333,1.89487-1.11112.22292-.66666,1.22609-2.88889.8917L86,64.42532l-.88889,1.33755L83.44444,66.766l-.33333.66877-.88889.33439v.55731l.44445.55732-.44445.8917,2.88889,2.22925-.44444.55731.66666,1.11462v1.7834s-1.88889,1.7834-1.88889,1.89486a3.71512,3.71512,0,0,1-.33333.66878l-8.66667-1.33755-.55555.33439-1.77778-.33439L70.66667,78.804v1.00316H69.44444l-.77777,3.90119H67.22222l-1,.55731s-1.11111.33439-1.11111.55731a8.22739,8.22739,0,0,1-.88889,1.449l-.55555-.33438L63,85.04588l-.44444.44585L60.77778,84.823l-2,.44585-2,1.00316H54.55556l-1.11112,1.11463L51,88.72414l-.77778-.33439H48.77778L47.55556,87.721,45,87.49805l-.66667-.78024-.88889-.66877-1.33333.11146-1.22222-2.78656.33333-.66878-.88889-1.56047L40,80.47591l-.55556-.78023-.22222-.44585-2.55555-1.33755-1.44445.22292-2.33333.22293-2.77778.55731v.33439l-1.88889.33438-1.11111-.66877-1.55555.66877-1.88889.11147-.77778.78023-1-.11146-2,.22293-1.11111-5.90752L18.22222,72.785l-.66666-1.33755-2.11112-3.90118H13.22222l-.66666.44585-3.11112-.22293-2.11111-4.4585-3.88889.78024.33334,3.45534-2.33334-.44585-.77777-3.5668L0,63.19923l4.88889-5.01581,3.55555-5.23874.44445.33439,2.66667-2.00633,2.88888-6.35336-.33333-.55731v-1.7834l.44445-.55731L14.33333,40.015l-1.22222-3.00949.11111-.89169.44445-.22293-.77778-1.449,1.22222-1.00316L15.55556,31.321l3.11111-2.11779L20,30.20633l2.77778.55732.77778-.44585.88888.55731V30.3178h1.11112l.22222-.66878,4.44444-1.00316,5.11111-.11146-.11111-1.00317,1.55556-2.11778L37,23.63005h.88889l1.55555-.66878.88889.55731,2.33334,1.67194,2,.33439.66666-.33439,2.88889.22293,1.55556-.11147-.11111-3.34387h-.88889V20.955l1.44444-.33439v-.8917l.88889-.11146-.66667-2.22925.44445-.33439V13.15257h.77778l.44444-2.898,2.44445.22292,1.77777-.66877,2.88889.33439,2.44445.22292L63,10.14309a13.07022,13.07022,0,0,0-.55556-2.22925A4.431,4.431,0,0,1,62,8.24822L60,2.6751l2-.22293.22222-.78023h1.44445Z"/></svg>