<svg xmlns="http://www.w3.org/2000/svg" xmlns:xlink="http://www.w3.org/1999/xlink" version="1.2" xml:space="preserve" width="162.227" height="141.569" viewBox="0 0 200 200"><path d="M10.654 37.635l.839.36 2.277-2.518 3.6-2.277 2.517-1.558 1.318-1.8 1.558-.839 1.2.719.959-1.2 3.955-.839 1.2.12v1.318l1.318-1.2.24 2.4h.719l.479 2.757 2.517.12.839-.6v2.637l.959.36.36 2.757 2.517-.719 2.277 1.079s3.835.12 4.075.12 3.356-.479 3.356-.479l3.6-1.8 6.352 5.993 1.318.959 3 1.318h1.8l-.36-2.037 2.517-.719v-2.275l2.277-2.757 2.517-.479v-1.079l-.854-1.438.479-.479-1.438-1.678.12-1.079 6.592-1.558.6-1.558 3.715-1.318v-.959l-.6-3.236 3.476-2.157-3.236-5.393 2.757-.839s2.157-.839 2.277-.6a5.532 5.532 0 0 0 1.2.839l.839-2.037 1.8.479 2.037-1.318.839 1.438-1.318 1.2 3.236 1.558 1.318 1.2 3.835-4.195v4.911l.959-.839 2.513-.361 1.318.12-1.318-5.991 3.6-2.517 1.438 2.757 1.438-2.757 3 3 1.918.36v2.628l-1.678 3.116 1.678 1.438 4.075-1.079 2.757 2.157-1.2.719-4.794 2.517-.24 1.918 2.277 2.157 2.876.719 4.554 1.438.959 1.079 1.8-2.876 1.678-4.914v-2.751l2.277-5.273 1.318-.24s.479.959.6 1.318a6.907 6.907 0 0 0 .6 1.079l1.318 1.558 1.558-.959v1.679l2.037 2.157 2.277-1.318 2.517 3.356-.959 2.517-3.116 1.8 5.273 4.434 4.674.6v2.637l1.318 1.079-2.277 2.157 1.918 3.835-.24 2.757-4.794 7.311-1.318-.6-3 4.914s-3 1.079-3 1.318 2.157 4.315 2.157 4.674 3.116.6 3 1.2-1.2 1.678-1.2 2.157a24.875 24.875 0 0 1-.719 2.876s-3.236 2.037-3.116 2.4a24.79 24.79 0 0 0 1.8 2.4l.36 2.157 1.438-.24s1.318 1.2 1.438 1.318-1.2 4.434-1.2 4.434l-3.715.959 2.277 4.075.959.36.479 1.558h1.918l2.637 3.715-.719.839-.479 1.8-2.038.959 3.236 6.712-2.757 1.8-2.876 1.318h-1.678l-2.517 4.075-7.431-6.951-.6 2.517.36 2.277 1.438 1.079-3.476 2.517.12 2.637h2.037l-1.558 3-1.918 1.079-.12 1.678-.959.36v1.438s-5.753.12-5.873.479-1.318 6.951-1.318 6.951l-.839-.479-1.2.479-1.079-.839-3 .12s-3.356-.6-3.356-.839.12-2.157.12-2.157l1.678-2.4-2.157-1.318-11.026-.24-1.2 5.873-3.476-.36-.839.839-3.835-.36-3.356-1.079h-3.234l-1.079-3.116-3.116-.6-2.637-4.315-1.2-6.352-5.393-2.876-3.234-12.842-1.438 2.64-2.038 2.037-2.277-.12.24 1.8-1.678 1.558H54.4l-1.318 2.157-1.918.36-1.8-.839-.839.839h-4.912l.719-3.715-1.558-7.317s1.678-10.067 2.277-10.067a9.007 9.007 0 0 1 1.8.36l1.079-1.079.12-2.876-1.079-.719 2.037-3.955h-2.4l-11.266-18.1-5.633.839-5.273 4.315-9.348-1.2.12-3.715-.6-2.517-4.553-4.668V46.26l1.2-1.079.24-2.4-1.081-2.15-.36-2.037z" fill="#472c0e" stroke="#472c0e" stroke-miterlimit="10" stroke-width="2"/></svg>
