<svg xmlns="http://www.w3.org/2000/svg" width="201.568" height="165.007" viewBox="0 0 201.568 165.007"><path d="M83.44,124.206a8.464,8.464,0,0,0-.476-1.834,2.329,2.329,0,0,1,1.32-3.628c2.887-1.153,3-1.41,1.794-4.118a1.1,1.1,0,0,1-.149-.387c-.022-2.237-1.1-2.983-3.806-1.918a22.782,22.782,0,0,0,1.035-3.209,11.313,11.313,0,0,1,2.64-6.45c1.43-1.586-.521-2.375-1.849-2.987l-.692,1.851c-.527-.58-1.352-1.083-1.528-1.755-.713-2.713-3.271-3.753-5.006-5.453-.563-.551-2.765.253-4.04.83a4.925,4.925,0,0,1-4.112-.073,17.736,17.736,0,0,0-5.776-.7c-.525,0-1.041,1.093-1.585,1.662-.4.421-.83,1.1-1.27,1.118a1.689,1.689,0,0,1-1.209-1.1,15.5,15.5,0,0,1-.576-4.795,8.878,8.878,0,0,0-2.84-7.881c-.865-.8-2.706-.609-4.114-.737a8.2,8.2,0,0,0-2.117.464l.695-3.041c-.947.134-1.9-.014-2.434.392a5.888,5.888,0,0,1-8.772-.422,4.957,4.957,0,0,1-.786-2.247c-.486-2.061-.893-4.14-1.376-6.2-.318-1.355-1.311-2.638.113-4.05a2.375,2.375,0,0,0-.5-2.145c-2.714-1.1-3.191-3.879-4.608-5.9a1.727,1.727,0,0,0-2.571-.685,14.274,14.274,0,0,1-2.341.634c-2.972.718-5.993,1.388-7.067,4.839-.558,1.794-1.6,1.262-2.756.734-.864-.4-1.818-.605-2.657-1.043a4.4,4.4,0,0,1-1.648-1.354c-1.269-1.951-2.326-4.044-3.672-5.936-.388-.546-1.453-.73-2.242-.846a3.661,3.661,0,0,1-3.415-3.924c-.024-1.234-.287-2.461-.368-3.7a2.229,2.229,0,0,1,.242-1.489,3.109,3.109,0,0,0-.313-4.657,5.566,5.566,0,0,1-1.7-3.706C.083,33.215.14,33.4,4.687,30.636c7.53-4.584,14.834-9.541,22.382-14.1A53.311,53.311,0,0,1,35.4,13.1c1.616-.629,3.256-1.205,4.915-1.708.666-.2,1.935-.374,2.029-.163a4.247,4.247,0,0,1,.534,2.876,3.619,3.619,0,0,0,.829,4.321c1.593,1.836,3.3,3.27,5.872,2.457.456-.144.935-1.277.845-1.867-.187-1.219.348-1.38,1.3-1.839,3.06-1.469,5.374.947,8.065,1.273.673.082,1.315.414,1.989.508,1.565.218,2.85.491,2.355,2.654-.332,1.453.7,1.965,2.013,1.93q3.163-.082,6.324-.191a1.355,1.355,0,0,0,.6-.134c5.108-2.9,11.031-4.766,14.071-10.351.916-1.684,1.834-2.817,3.756-2.623a16.623,16.623,0,0,1,2.8.9,5.991,5.991,0,0,0,2.283.47c1.415-.188,1.956-1.023,1.007-2.333-3.119-4.31-2.119-4.881,2.622-6.751a4.17,4.17,0,0,1,1.992-.5c.619.106,1.609.7,1.638,1.135.13,1.963.941,2.726,2.959,2.93,4.69.473,4.67.589,6.988-3.567.3-.537.632-1.233,1.125-1.445.843-.362,2.046-.805,2.689-.458.66.356,1.027,1.59,1.16,2.494a11.215,11.215,0,0,1-.339,2.891l-2.092.193c.246,1.593,1.3,1.553,2.317,1.377A5.334,5.334,0,0,1,123,8.17a.971.971,0,0,0,.936.041c1.368-1.433,2.707-2.9,3.99-4.4A13.978,13.978,0,0,0,129.094,1.9c.853.637,2.089,1.105,2.462,1.953a12.83,12.83,0,0,1,.266,3.623,10.379,10.379,0,0,0,.583,2.774,33.49,33.49,0,0,1,1.773,3.667c.319,1.226.958,1.353,1.944,1.3,3.324-.168,3.416-.04,3.052,3.132-.046.4.407,1.23.615,1.226,1.756-.039,3.51-.211,5.261-.379.509-.049,1.1-.437,1.5-.282,1.844.716,3.208-.328,4.6-1.151A3.114,3.114,0,0,1,155.938,20a5.73,5.73,0,0,0,5.173,5.272c1.546.229,3.138.187,4.667.485a10.8,10.8,0,0,1,2.807,1.21c.342.179.5.794.837.885,2.018.551,2.533,1.377.664,2.81-.929.712.184,1.682-.55,2.84-1.081,1.707-3.45,3.341-2.39,6.128.226.593-.283,1.628-.724,2.274-.65.952-1.641,1.509-.45,2.959.338.412-.958,2.378-1.751,3.448s-2.235,1.772-2.766,2.923a3.756,3.756,0,0,0,.265,3.365,6.246,6.246,0,0,1,1.388,6.393l4.075-1.711-.152.4c1.637.233,3.271.5,4.913.69,2.718.312,5.463.459,8.149.939.638.114,1.091,1.267,1.867,2.24,3.492-.86,4.97,2.422,5.785,4.823.965,2.841,3.043,3.027,5.593,4.125a44.594,44.594,0,0,0-3.112,3.239c-.625.792-1.611,2.212-1.336,2.635.95,1.458,1.055,3.957,3.806,3.718a12.5,12.5,0,0,1,3.286.427c.379.071.971.309,1.033.572.522,2.219,2.384,4.321.965,6.735-.907,1.542-.35,2.5.665,3.655a10.429,10.429,0,0,1,1.25,2.589,9.956,9.956,0,0,1-2.843.629c-1.821-.138-2.135,1.052-2.689,2.31a5.386,5.386,0,0,1-1.723,1.92c-1.188.9-2.551,1.575-3.688,2.527-.328.275-.234,1.189-.153,1.787.165,1.227.656,2.435-1.147,3-.377.119-.427,1.242-.65,1.894-.157.46-.353.907-.532,1.359-.385-.294-1.06-.549-1.106-.888-.237-1.759-.77-2.307-2.377-1.047-.287.225-1.327-.188-1.8-.575-1.8-1.476-3.338-.946-3.972,1.307a6.812,6.812,0,0,1-1.458,2.047,19.5,19.5,0,0,0-2.1,2.589c-1.179,2.178-2.184,4.45-3.259,6.684-.06.124-.194.28-.16.373.912,2.475-1.087,3.169-2.418,4.527a13.9,13.9,0,0,0-1.913,4.645l1.713,1.381a6.055,6.055,0,0,0-1.252,6c.131.309.264.856.435.872,2.855.261,2.515,2.832,3.395,4.535a2.4,2.4,0,0,0,1.352,1.182c1.253.281,1.771.8,1.114,2.012-.6,1.113-.522,1.93.721,2.552s1.14,1.735.464,2.634a5.161,5.161,0,0,0-1.481,4.777c.279,1.024-2.229,2.655-3.37,2.311a16.961,16.961,0,0,1-1.809-.785c-.876,1.871-2.381,1.769-4.021,1.381-2.538-.6-3.274-.143-4.162,2.6a3.064,3.064,0,0,0-4.364-.114c-1,.741-2.672,1.738-4.039-.084,1.688-2.447-.458-4.41-1.253-6.343a3.865,3.865,0,0,0-5.734-2.006,4.032,4.032,0,0,1-.1-1.185c.835-2.932-.7-4.613-3.816-4.6a4.575,4.575,0,0,1-4.318-1.651c-.717-.939-1.6-1.973-2.425-2.964a7.943,7.943,0,0,0-1.877-1.458,28.146,28.146,0,0,0-3.851-2.282,7.065,7.065,0,0,0-2.892-.357c-1.359.03-2.714.238-3.692.333a42.166,42.166,0,0,1-.805-4.874,6.9,6.9,0,0,1,.644-2.764,3.833,3.833,0,0,0-2.5-5.579c-1.521-.516-1.863-1.021-.961-2.7a24.22,24.22,0,0,0,1.4-5.77,23.2,23.2,0,0,1,.952-3.148c.33-.83.932-1.552,1.258-2.383a4.2,4.2,0,0,0,.273-1.859c-1.106-.381-2.459-1.04-3.389-.689-1.165.44-1.991,1.766-2.98,2.69-.539.5-1.129.954-1.672,1.455-1.164,1.073-2.471,1.791-1.566,4.04.473,1.175-.481,4.138-1.394,4.435a41.89,41.89,0,0,0-8.726,4.038,8.655,8.655,0,0,1-7.64-.4,6.73,6.73,0,0,0-4.729-.516,5.178,5.178,0,0,1-5.366-1.659Z" transform="translate(0.429 0.484)" fill="none" stroke="#472c0e" stroke-miterlimit="10" stroke-width="2"/></svg>