<svg xmlns="http://www.w3.org/2000/svg" viewBox="0 0 226.15337 52.08477"><defs><style>.a{fill:#f2f2f2;}</style></defs><title>cloud-header</title><path class="a" d="M226.15337,21.44051c0,4.0828-17.36327,8.34466-25.72336-.55631-10.93243.55631-17.36328-3.89418-21.86486-12.23885-5.78776,1.66894-12.86169-2.22524-14.79094-5.56311-2.57234,16.133-36.6558,23.92138-46.30206,2.22525-7.07392,1.11262-10.93243-.55631-14.79093-3.33787C98.82271,8.089,91.1057,11.98322,81.45944,8.089,76.31477,23.66575,60.88075,25.891,50.5914,21.99682c-4.50159,2.22524-6.43084,2.78155-12.2186,1.66893.64309,25.034-23.79411,28.92817-31.51112,25.59031C2.6051,52.00919,1.46655,52.21591.43084,52.03761.43084,30.34148,0,29,0,0H226C226,23,226.15337-1,226.15337,21.44051Z"/></svg>