<svg xmlns="http://www.w3.org/2000/svg" viewBox="0 0 100 63.00002"><defs><style>.a{fill:#fbb03b;}</style></defs><title>Fichier 55</title><path class="a" d="M69.90558,12.17242a26.5782,26.5782,0,0,0-11.61969,4.213C56.492,14.235,53.16,10.68179,52.9439,10.43877A32.42241,32.42241,0,0,0,31,.073V0c-.39386,0-.7842.01538-1.17466.0301C29.54785.02329,29.2822,0,29,0V.07273C12.91652,1.12126,0,14.7118,0,32.00011,0,47.99994,14,63,31,63h30c-.07723,0,7.26614-.00176,24.4,0C97.4,56.99994,100,46.1015,100,38.99994A27.00761,27.00761,0,0,0,69.90558,12.17242Z"/></svg>