<svg xmlns="http://www.w3.org/2000/svg" viewBox="0 0 42 42"><defs><style>.a,.c{fill:none;}.b{fill:#333;}.c{stroke:#333;stroke-miterlimit:10;}</style></defs><title>filter</title><rect class="a" width="42" height="42"/><path class="b" d="M20.97283,14.87022a5.40122,5.40122,0,0,1,.19264-1.36217H5.5122a1.36217,1.36217,0,1,0,0,2.72434H21.16547A5.40122,5.40122,0,0,1,20.97283,14.87022Z"/><path class="b" d="M21.16547,13.50806H5.51221a1.36218,1.36218,0,1,0,0,2.72436H21.16547a4.91263,4.91263,0,0,1,0-2.72436Z"/><path class="b" d="M36.63783,13.50805H31.67758a4.91232,4.91232,0,0,1,0,2.72434h4.96025a1.36217,1.36217,0,1,0,0-2.72434Z"/><path class="b" d="M36.63782,13.50806H31.67761a4.91263,4.91263,0,0,1,0,2.72436h4.96021a1.36218,1.36218,0,1,0,0-2.72436Z"/><circle class="c" cx="26.42153" cy="14.87022" r="5.44869"/><path class="b" d="M10.07545,27.12978a5.40121,5.40121,0,0,1,.19263-1.36217H5.5122a1.36217,1.36217,0,1,0,0,2.72434h4.75588A5.40121,5.40121,0,0,1,10.07545,27.12978Z"/><path class="b" d="M10.26807,25.76758H5.51221a1.36218,1.36218,0,1,0,0,2.72436h4.75586a4.91263,4.91263,0,0,1,0-2.72436Z"/><path class="b" d="M36.63783,25.76761H20.7802a4.91256,4.91256,0,0,1,0,2.72434H36.63783a1.36217,1.36217,0,1,0,0-2.72434Z"/><path class="b" d="M36.63782,25.76758H20.78021a4.91263,4.91263,0,0,1,0,2.72436H36.63782a1.36218,1.36218,0,1,0,0-2.72436Z"/><circle class="c" cx="15.52414" cy="27.12978" r="5.44869"/></svg>