<svg xmlns="http://www.w3.org/2000/svg" viewBox="0 0 200 60"><defs><style>.a{fill:#f2f2f2;}</style></defs><title>Fichier 54</title><path class="a" d="M0,28.691c0-3.82257,15.36573-7.81278,22.764.52085,9.67472-.52085,15.36573,3.646,19.34943,11.45874,5.12191-1.56256,11.382,2.0834,13.08933,5.20851,2.2764-15.1047,32.43875-22.39662,40.97527-2.0834,6.26011-1.04171,9.67472.52085,13.08932,3.12511,3.41461-5.72937,10.24382-9.37534,18.78033-5.72937,4.55281-14.58385,18.21124-16.66726,27.31685-13.0213,3.98371-2.0834,5.691-2.60425,10.81292-1.56255-.5691-23.43833,21.05674-27.08429,27.886-23.95918C197.83033.07076,199.08344-.12278,200,.04415V60H0Z"/></svg>