<svg xmlns="http://www.w3.org/2000/svg" viewBox="0 0 97 81.45497"><defs><style>.a{fill:#25384e;}</style></defs><title>logo</title><path class="a" d="M41,16c3-4,5-6,8.48053-10.3C49.48065,5.7,43,0,31,0,14,0,0,14,0,32,0,48,14,63,31,63H77.74039C84,60,89.77155,53.37891,89.77155,53.37891A26.99987,26.99987,0,1,0,43.10383,32.60264C42.68936,37.4,44,45,47,50H31c-11,0-19-8.5-19-18,0-10,7-19,19-19A16.89384,16.89384,0,0,1,41,16ZM83.96532,36.99782A14.27922,14.27922,0,0,1,69.57523,50H69.3137A13.284,13.284,0,0,1,56,36.7277v-.29714A14.28484,14.28484,0,0,1,69.001,22.03473,14.00258,14.00258,0,0,1,83.96532,36.99782Z"/><path class="a" d="M59.63322,67.01315l8.83162,14.13059a.66219.66219,0,0,0,1.10721.02419l3.95965-5.75951A6.00591,6.00591,0,0,0,68.58258,66H60.19476A.66219.66219,0,0,0,59.63322,67.01315Z"/></svg>