<svg xmlns="http://www.w3.org/2000/svg" viewBox="0 0 400 170"><title>Fichier 92</title><path d="M73.27251,104.30083h-8.8397c-22.86326,0-39.49108-17.73114-39.49108-37.5483,0-20.86017,14.54935-39.63431,39.49108-39.63431a35.0238,35.0238,0,0,1,20.78478,6.258C91.453,25.0322,95.61,20.86017,102.84418,11.89019,102.84443,11.89019,89.37454,0,64.43281,0,29.09869,0,0,29.20423,0,66.75253c0,33.37627,29.09869,64.66652,64.43281,64.66652H82.84007Z"/><path d="M92.1898,57.85743a64.84416,64.84416,0,0,1,15.10832-6.4152,62.06794,62.06794,0,0,1,16.93522-2.24944,47.8925,47.8925,0,0,1,13.033,1.6665,26.71712,26.71712,0,0,1,10.12785,5.24837,22.99246,22.99246,0,0,1,6.475,9.16526,35.985,35.985,0,0,1,2.24131,13.41334V130.342h-17.1007l-1.99238-8.165h-.66428a26.36665,26.36665,0,0,1-9.7125,7.33221,32.98334,32.98334,0,0,1-13.69725,2.66582,31.79579,31.79579,0,0,1-11.45594-1.91633,25.84755,25.84755,0,0,1-8.46737-5.166,20.642,20.642,0,0,1-5.22988-7.74763,26.51557,26.51557,0,0,1-1.74345-9.66492A22.67815,22.67815,0,0,1,88.9523,95.93226a23.40279,23.40279,0,0,1,8.0525-8.08074,38.381,38.381,0,0,1,12.03677-4.66638,69.837,69.837,0,0,1,14.85939-1.499h9.9619V76.85321q0-5.49773-3.40345-8.0817-3.40488-2.58015-9.54654-2.58255a34.66946,34.66946,0,0,0-9.87892,1.5,59.113,59.113,0,0,0-11.207,4.832Zm41.839,37.65845-7.13928.16655q-10.12879.336-14.11213,3.41627a9.13768,9.13768,0,0,0-3.98476,7.41549q0,5.66571,3.40345,7.74763a14.46378,14.46378,0,0,0,7.72059,2.08289,14.999,14.999,0,0,0,8.21845-2.49927,17.97125,17.97125,0,0,0,5.89368-5.83226Z"/><path d="M168.89354,130.342V11.36779h21.74974V130.342Z"/><path d="M215.87755,33.86312q-5.646,0-8.79928-3.24972a11.13671,11.13671,0,0,1-3.15452-8.0817,11.14292,11.14292,0,0,1,3.15452-8.0817q3.15165-3.24924,8.79928-3.24876a11.75374,11.75374,0,0,1,8.7163,3.24876,10.99256,10.99256,0,0,1,3.238,8.0817,11.14835,11.14835,0,0,1-3.15452,8.0817Q221.52135,33.86264,215.87755,33.86312Zm-11.124,96.47883V50.85929h22.08212V130.342Z"/><path d="M239.61728,77.85349a26.84739,26.84739,0,0,1,2.57322-11.83108,26.51438,26.51438,0,0,1,7.13927-9.081,32.4277,32.4277,0,0,1,10.79214-5.749,44.59429,44.59429,0,0,1,13.69725-1.99961,50.02051,50.02051,0,0,1,6.14309.41639,38.93218,38.93218,0,0,1,6.14309,1.25011h33.86949V64.85653h-7.13928l-10.2938-1.49994a22.364,22.364,0,0,1,3.56988,6.665,23.94751,23.94751,0,0,1,1.41107,7.99843q0,12.66528-9.04821,20.41244-9.05154,7.74763-24.82128,7.74763a35.54977,35.54977,0,0,1-7.30524-.66621q-4.15237,1.66841-4.15071,5.49915a4.62554,4.62554,0,0,0,1.82595,3.99921q1.82549,1.33531,6.47548,1.33244h17.765q13.11308,0,21.00248,5.749,7.88344,5.749,7.88654,18.41284a23.74427,23.74427,0,0,1-3.07154,11.91436,28.47655,28.47655,0,0,1-8.71678,9.33086,43.959,43.959,0,0,1-13.61427,6.08209A67.77813,67.77813,0,0,1,273.98511,170q-18.09879,0-28.64009-6.4152-10.54512-6.41664-10.54273-18.41284a13.90162,13.90162,0,0,1,3.65285-9.58069,24.29041,24.29041,0,0,1,10.12737-6.41616,22.12285,22.12285,0,0,1-4.64856-4.7487,12.49208,12.49208,0,0,1-2.32429-7.74859,14.38665,14.38665,0,0,1,3.32048-9.49741,23.31281,23.31281,0,0,1,8.46737-6.33193A27.18817,27.18817,0,0,1,244.0999,92.517a25.06355,25.06355,0,0,1-4.48262-14.66346Zm21.25141,55.15428a12.68758,12.68758,0,0,0-4.15071,3.49955,8.76711,8.76711,0,0,0-1.66,5.49916,9.72447,9.72447,0,0,0,4.39964,8.08074q4.397,3.25068,15.19178,3.24972,10.79046,0,15.7726-3.66611,4.98071-3.667,4.98095-8.33153,0-4.66638-3.15452-6.49848-3.156-1.835-9.796-1.83305Zm25.07022-55.32083q0-6.49848-3.48643-9.83148a13.392,13.392,0,0,0-17.682,0q-3.40488,3.33539-3.40345,9.66492,0,6.66648,3.48642,9.99707a13.392,13.392,0,0,0,17.682,0Q285.93677,84.18637,285.93891,77.68694Z"/><path d="M400,90.01768a46.94689,46.94689,0,0,1-3.15452,17.66239,38.03847,38.03847,0,0,1-8.71678,13.24679,38.52738,38.52738,0,0,1-13.033,8.33153,43.93087,43.93087,0,0,1-16.105,2.91661,46.89576,46.89576,0,0,1-16.02153-2.66582,35.116,35.116,0,0,1-21.25189-20.579,45.58383,45.58383,0,0,1-3.07155-17.247,48.53079,48.53079,0,0,1,3.15453-18.07877,36.95278,36.95278,0,0,1,21.74974-21.57928,45.06949,45.06949,0,0,1,16.105-2.83238,46.91568,46.91568,0,0,1,16.02153,2.66582,36.48549,36.48549,0,0,1,12.78451,7.7486,35.26522,35.26522,0,0,1,8.46738,12.74713A47.25028,47.25028,0,0,1,400,90.01768Zm-22.74593.83277a39.82931,39.82931,0,0,0-1.49453-11.66453,22.57967,22.57967,0,0,0-3.98428-7.83091,15.33851,15.33851,0,0,0-5.81118-4.4156,17.22394,17.22394,0,0,0-6.80738-1.41666,17.86561,17.86561,0,0,0-6.64094,1.24915,14.40034,14.40034,0,0,0-5.64476,4.16577,21.67077,21.67077,0,0,0-3.98476,7.74859,41.87941,41.87941,0,0,0-1.49452,12.16419,37.64456,37.64456,0,0,0,1.49452,11.24719,21.75881,21.75881,0,0,0,4.06773,7.74859,17.131,17.131,0,0,0,5.81071,4.49887,15.81773,15.81773,0,0,0,6.7244,1.49995,17.85805,17.85805,0,0,0,6.64095-1.25012,14.102,14.102,0,0,0,5.64523-4.249,22.633,22.633,0,0,0,3.98428-7.74764A39.63354,39.63354,0,0,0,377.25407,90.85045Z"/></svg>