<?xml version="1.0" encoding="utf-8"?>
<!-- Generator: Adobe Illustrator 23.0.1, SVG Export Plug-In . SVG Version: 6.00 Build 0)  -->
<svg version="1.1" id="Calque_1" xmlns="http://www.w3.org/2000/svg" xmlns:xlink="http://www.w3.org/1999/xlink" x="0px" y="0px"
	 viewBox="0 0 97 81.5" style="enable-background:new 0 0 97 81.5;" xml:space="preserve">
<style type="text/css">
	.st0{fill:#25384E;}
	.st1{fill:#3E2500;}
	.st2{enable-background:new    ;}
	.st3{clip-path:url(#SVGID_2_);}
	.st4{clip-path:url(#SVGID_4_);}
	.st5{clip-path:url(#SVGID_6_);}
	.st6{clip-path:url(#SVGID_8_);}
	.st7{clip-path:url(#SVGID_10_);}
	.st8{clip-path:url(#SVGID_12_);}
	.st9{clip-path:url(#SVGID_14_);}
	.st10{clip-path:url(#SVGID_16_);}
</style>
<title>logo</title>
<path class="st0" d="M41,16c3-4,5-6,8.5-10.3C49.5,5.7,43,0,31,0C14,0,0,14,0,32c0,16,14,31,31,31h46.7c6.3-3,12-9.6,12-9.6
	c10.2-10.9,9.5-28-1.4-38.2s-28-9.5-38.2,1.4c-4.1,4.4-6.6,10-7.1,16C42.7,37.4,44,45,47,50H31c-11,0-19-8.5-19-18c0-10,7-19,19-19
	C34.6,12.9,38.1,14,41,16z M84,37c-0.7,7.4-6.9,13.1-14.4,13h-0.3C62,50,56,44.1,56,36.7c0,0,0,0,0,0v-0.3C55.9,29,61.6,22.7,69,22
	c7.7-0.6,14.4,5.3,15,13C84,35.7,84,36.3,84,37z"/>
<path class="st0" d="M59.6,67l8.8,14.1c0.2,0.3,0.6,0.4,0.9,0.2c0.1,0,0.1-0.1,0.2-0.2l4-5.8c1.9-2.7,1.2-6.5-1.5-8.4
	c-1-0.7-2.2-1.1-3.4-1.1h-8.4c-0.4,0-0.7,0.3-0.7,0.7C59.5,66.8,59.6,66.9,59.6,67z"/>
<g>
	<path class="st1" d="M292.3,74.5c3.1-4.1,5.2-6.2,8.7-10.6c0,0-6.7-5.9-19.1-5.9c-17.5,0-32,14.4-32,33c0,16.5,14.4,32,32,32h48.2
		c6.5-3.1,12.4-9.9,12.4-9.9c10.5-11.3,9.8-28.9-1.4-39.3s-28.9-9.8-39.3,1.4c-4.2,4.5-6.8,10.3-7.3,16.5c-0.4,4.9,0.9,12.8,4,17.9
		H282c-11.3,0-19.6-8.8-19.6-18.6c0-10.3,7.2-19.6,19.6-19.6C285.6,71.3,289.2,72.4,292.3,74.5z M336.6,96.2
		c-0.7,7.7-7.1,13.5-14.8,13.4h-0.3c-7.6,0-13.7-6.1-13.7-13.7c0,0,0,0,0,0v-0.3c-0.1-7.7,5.7-14.2,13.4-14.8
		c8-0.6,14.9,5.4,15.4,13.4C336.6,94.8,336.6,95.5,336.6,96.2z"/>
	<path class="st1" d="M311.5,127.1l9.1,14.6c0.2,0.3,0.6,0.4,0.9,0.2c0.1,0,0.1-0.1,0.2-0.2l4.1-5.9c1.9-2.8,1.2-6.7-1.6-8.6
		c-1-0.7-2.3-1.1-3.5-1.1h-8.6c-0.4,0-0.7,0.3-0.7,0.7C311.4,126.9,311.4,127,311.5,127.1z"/>
</g>
<g>
	<path class="st1" d="M392.3,74.5c3.1-4.1,5.2-6.2,8.7-10.6c0,0-6.7-5.9-19.1-5.9c-17.5,0-32,14.4-32,33c0,16.5,14.4,32,32,32h48.2
		c6.5-3.1,12.4-9.9,12.4-9.9c10.5-11.3,9.8-28.9-1.4-39.3s-28.9-9.8-39.3,1.4c-4.2,4.5-6.8,10.3-7.3,16.5c-0.4,4.9,0.9,12.8,4,17.9
		H382c-11.3,0-19.6-8.8-19.6-18.6c0-10.3,7.2-19.6,19.6-19.6C385.6,71.3,389.2,72.4,392.3,74.5z M436.6,96.2
		c-0.7,7.7-7.1,13.5-14.8,13.4h-0.3c-7.6,0-13.7-6.1-13.7-13.7c0,0,0,0,0,0v-0.3c-0.1-7.7,5.7-14.2,13.4-14.8
		c8-0.6,14.9,5.4,15.4,13.4C436.6,94.8,436.6,95.5,436.6,96.2z"/>
	<g>
		<g>
			<g class="st2">
				<defs>
					<rect id="SVGID_1_" x="412.4" y="126.1" class="st2" width="13.4" height="15.9"/>
				</defs>
				<clipPath id="SVGID_2_">
					<use xlink:href="#SVGID_1_"  style="overflow:visible;"/>
				</clipPath>
				<g class="st3">
					<g>
						<g>
							<g>
								<path class="st1" d="M420.5,126.1l-7.5,0c-0.3,0-0.6,0.3-0.6,0.7c0,0.1,0,0.3,0.1,0.4l7.9,14.6c0.1,0.2,0.3,0.3,0.5,0.3
									c0.1,0,0.2,0,0.3-0.1l0.2-0.2l3.5-5.9c1.7-2.8,1.1-6.7-1.4-8.6C422.6,126.4,421.6,126.1,420.5,126.1"/>
							</g>
						</g>
					</g>
				</g>
			</g>
		</g>
	</g>
</g>
<g>
	<path class="st1" d="M492.3,74.5c3.1-4.1,5.2-6.2,8.7-10.6c0,0-6.7-5.9-19.1-5.9c-17.5,0-32,14.4-32,33c0,16.5,14.4,32,32,32h48.2
		c6.5-3.1,12.4-9.9,12.4-9.9c10.5-11.3,9.8-28.9-1.4-39.3c-11.3-10.5-28.9-9.8-39.3,1.4c-4.2,4.5-6.8,10.3-7.3,16.5
		c-0.4,4.9,0.9,12.8,4,17.9H482c-11.3,0-19.6-8.8-19.6-18.6c0-10.3,7.2-19.6,19.6-19.6C485.6,71.3,489.2,72.4,492.3,74.5z
		 M536.6,96.2c-0.7,7.7-7.1,13.5-14.8,13.4h-0.3c-7.6,0-13.7-6.1-13.7-13.7c0,0,0,0,0,0v-0.3c-0.1-7.7,5.7-14.2,13.4-14.8
		c8-0.6,14.9,5.4,15.4,13.4C536.6,94.8,536.6,95.5,536.6,96.2z"/>
	<g>
		<g>
			<g class="st2">
				<defs>
					<rect id="SVGID_3_" x="515.2" y="126.1" class="st2" width="7.7" height="15.9"/>
				</defs>
				<clipPath id="SVGID_4_">
					<use xlink:href="#SVGID_3_"  style="overflow:visible;"/>
				</clipPath>
				<g class="st4">
					<g>
						<g>
							<g>
								<path class="st1" d="M519.9,126.1l-4.3,0c-0.2,0-0.3,0.3-0.3,0.7c0,0.1,0,0.3,0.1,0.4l4.6,14.6c0.1,0.2,0.2,0.3,0.3,0.3
									c0.1,0,0.1,0,0.2-0.1l0.1-0.2l2-5.9c1-2.8,0.6-6.7-0.8-8.6C521.1,126.4,520.5,126.1,519.9,126.1"/>
							</g>
						</g>
					</g>
				</g>
			</g>
		</g>
	</g>
</g>
<g>
	<path class="st1" d="M592.3,74.5c3.1-4.1,5.2-6.2,8.7-10.6c0,0-6.7-5.9-19.1-5.9c-17.5,0-32,14.4-32,33c0,16.5,14.4,32,32,32h48.2
		c6.5-3.1,12.4-9.9,12.4-9.9c10.5-11.3,9.8-28.9-1.4-39.3c-11.3-10.5-28.9-9.8-39.3,1.4c-4.2,4.5-6.8,10.3-7.3,16.5
		c-0.4,4.9,0.9,12.8,4,17.9H582c-11.3,0-19.6-8.8-19.6-18.6c0-10.3,7.2-19.6,19.6-19.6C585.6,71.3,589.2,72.4,592.3,74.5z
		 M636.6,96.2c-0.7,7.7-7.1,13.5-14.8,13.4h-0.3c-7.6,0-13.7-6.1-13.7-13.7c0,0,0,0,0,0v-0.3c-0.1-7.7,5.7-14.2,13.4-14.8
		c8-0.6,14.9,5.4,15.4,13.4C636.6,94.8,636.6,95.5,636.6,96.2z"/>
	<g>
	</g>
</g>
<g>
	<path class="st1" d="M692.3,74.5c3.1-4.1,5.2-6.2,8.7-10.6c0,0-6.7-5.9-19.1-5.9c-17.5,0-32,14.4-32,33c0,16.5,14.4,32,32,32h48.2
		c6.5-3.1,12.4-9.9,12.4-9.9c10.5-11.3,9.8-28.9-1.4-39.3c-11.3-10.5-28.9-9.8-39.3,1.4c-4.2,4.5-6.8,10.3-7.3,16.5
		c-0.4,4.9,0.9,12.8,4,17.9H682c-11.3,0-19.6-8.8-19.6-18.6c0-10.3,7.2-19.6,19.6-19.6C685.6,71.3,689.2,72.4,692.3,74.5z
		 M736.6,96.2c-0.7,7.7-7.1,13.5-14.8,13.4h-0.3c-7.6,0-13.7-6.1-13.7-13.7c0,0,0,0,0,0v-0.3c-0.1-7.7,5.7-14.2,13.4-14.8
		c8-0.6,14.9,5.4,15.4,13.4C736.6,94.8,736.6,95.5,736.6,96.2z"/>
	<g>
		<g>
			<g class="st2">
				<defs>
					<rect id="SVGID_5_" x="715.2" y="126.1" class="st2" width="7.7" height="15.9"/>
				</defs>
				<clipPath id="SVGID_6_">
					<use xlink:href="#SVGID_5_"  style="overflow:visible;"/>
				</clipPath>
				<g class="st5">
					<g>
						<g>
							<g>
								<path class="st1" d="M718.3,126.1l4.3,0c0.2,0,0.3,0.3,0.3,0.7c0,0.1,0,0.3,0,0.4l-4.6,14.6c-0.1,0.2-0.2,0.3-0.3,0.3
									c-0.1,0-0.1,0-0.2-0.1l-0.1-0.2l-2-5.9c-1-2.8-0.6-6.7,0.8-8.6C717,126.4,717.6,126.1,718.3,126.1"/>
							</g>
						</g>
					</g>
				</g>
			</g>
		</g>
	</g>
</g>
<g>
	<path class="st1" d="M792.3,74.5c3.1-4.1,5.2-6.2,8.7-10.6c0,0-6.7-5.9-19.1-5.9c-17.5,0-32,14.4-32,33c0,16.5,14.4,32,32,32h48.2
		c6.5-3.1,12.4-9.9,12.4-9.9c10.5-11.3,9.8-28.9-1.4-39.3c-11.3-10.5-28.9-9.8-39.3,1.4c-4.2,4.5-6.8,10.3-7.3,16.5
		c-0.4,4.9,0.9,12.8,4,17.9H782c-11.3,0-19.6-8.8-19.6-18.6c0-10.3,7.2-19.6,19.6-19.6C785.6,71.3,789.2,72.4,792.3,74.5z
		 M836.6,96.2c-0.7,7.7-7.1,13.5-14.8,13.4h-0.3c-7.6,0-13.7-6.1-13.7-13.7c0,0,0,0,0,0v-0.3c-0.1-7.7,5.7-14.2,13.4-14.8
		c8-0.6,14.9,5.4,15.4,13.4C836.6,94.8,836.6,95.5,836.6,96.2z"/>
	<g>
		<g>
			<g class="st2">
				<defs>
					<rect id="SVGID_7_" x="812.4" y="126.1" class="st2" width="13.4" height="15.9"/>
				</defs>
				<clipPath id="SVGID_8_">
					<use xlink:href="#SVGID_7_"  style="overflow:visible;"/>
				</clipPath>
				<g class="st6">
					<g>
						<g>
							<g>
								<path class="st1" d="M817.7,126.1l7.5,0c0.3,0,0.6,0.3,0.6,0.7c0,0.1,0,0.3-0.1,0.4l-7.9,14.6c-0.1,0.2-0.3,0.3-0.5,0.3
									c-0.1,0-0.2,0-0.3-0.1l-0.2-0.2l-3.5-5.9c-1.7-2.8-1.1-6.7,1.4-8.6C815.5,126.4,816.6,126.1,817.7,126.1"/>
							</g>
						</g>
					</g>
				</g>
			</g>
		</g>
	</g>
</g>
<g>
	<path class="st1" d="M892.3,74.5c3.1-4.1,5.2-6.2,8.7-10.6c0,0-6.7-5.9-19.1-5.9c-17.5,0-32,14.4-32,33c0,16.5,14.4,32,32,32h48.2
		c6.5-3.1,12.4-9.9,12.4-9.9c10.5-11.3,9.8-28.9-1.4-39.3c-11.3-10.5-28.9-9.8-39.3,1.4c-4.2,4.5-6.8,10.3-7.3,16.5
		c-0.4,4.9,0.9,12.8,4,17.9H882c-11.3,0-19.6-8.8-19.6-18.6c0-10.3,7.2-19.6,19.6-19.6C885.6,71.3,889.2,72.4,892.3,74.5z
		 M936.6,96.2c-0.7,7.7-7.1,13.5-14.8,13.4h-0.3c-7.6,0-13.7-6.1-13.7-13.7c0,0,0,0,0,0v-0.3c-0.1-7.7,5.7-14.2,13.4-14.8
		c8-0.6,14.9,5.4,15.4,13.4C936.6,94.8,936.6,95.5,936.6,96.2z"/>
	<g>
		<g>
			<g class="st2">
				<defs>
					<rect id="SVGID_9_" x="911.4" y="126.1" class="st2" width="15.4" height="15.9"/>
				</defs>
				<clipPath id="SVGID_10_">
					<use xlink:href="#SVGID_9_"  style="overflow:visible;"/>
				</clipPath>
				<g class="st7">
					<g>
						<g>
							<g>
								<path class="st1" d="M917.5,126.1h8.6c0.4,0,0.7,0.3,0.7,0.7c0,0.1,0,0.3-0.1,0.4l-9.1,14.6c-0.1,0.2-0.3,0.3-0.6,0.3
									c-0.1,0-0.3,0-0.4-0.1l-0.2-0.2l-4.1-5.9c-1.9-2.8-1.2-6.7,1.6-8.6C915,126.4,916.2,126.1,917.5,126.1"/>
							</g>
						</g>
					</g>
				</g>
			</g>
		</g>
	</g>
</g>
<g>
	<path class="st1" d="M992.3,74.5c3.1-4.1,5.2-6.2,8.7-10.6c0,0-6.7-5.9-19.1-5.9c-17.5,0-32,14.4-32,33c0,16.5,14.4,32,32,32h48.2
		c6.5-3.1,12.4-9.9,12.4-9.9c10.5-11.3,9.8-28.9-1.4-39.3s-28.9-9.8-39.3,1.4c-4.2,4.5-6.8,10.3-7.3,16.5c-0.4,4.9,0.9,12.8,4,17.9
		H982c-11.3,0-19.6-8.8-19.6-18.6c0-10.3,7.2-19.6,19.6-19.6C985.6,71.3,989.2,72.4,992.3,74.5z M1036.6,96.2
		c-0.7,7.7-7.1,13.5-14.8,13.4h-0.3c-7.6,0-13.7-6.1-13.7-13.7c0,0,0,0,0,0v-0.3c-0.1-7.7,5.7-14.2,13.4-14.8
		c8-0.6,14.9,5.4,15.4,13.4C1036.6,94.8,1036.6,95.5,1036.6,96.2z"/>
	<path class="st1" d="M1011.5,127.1l9.1,14.6c0.2,0.3,0.6,0.4,0.9,0.2c0.1,0,0.1-0.1,0.2-0.2l4.1-5.9c1.9-2.8,1.2-6.7-1.6-8.6
		c-1-0.7-2.3-1.1-3.5-1.1h-8.6c-0.4,0-0.7,0.3-0.7,0.7C1011.4,126.9,1011.4,127,1011.5,127.1z"/>
</g>
<g>
	<path class="st1" d="M1092.3,74.5c3.1-4.1,5.2-6.2,8.7-10.6c0,0-6.7-5.9-19.1-5.9c-17.5,0-32,14.4-32,33c0,16.5,14.4,32,32,32h48.2
		c6.5-3.1,12.4-9.9,12.4-9.9c10.5-11.3,9.8-28.9-1.4-39.3s-28.9-9.8-39.3,1.4c-4.2,4.5-6.8,10.3-7.3,16.5c-0.4,4.9,0.9,12.8,4,17.9
		H1082c-11.3,0-19.6-8.8-19.6-18.6c0-10.3,7.2-19.6,19.6-19.6C1085.6,71.3,1089.2,72.4,1092.3,74.5z M1136.6,96.2
		c-0.7,7.7-7.1,13.5-14.8,13.4h-0.3c-7.6,0-13.7-6.1-13.7-13.7c0,0,0,0,0,0v-0.3c-0.1-7.7,5.7-14.2,13.4-14.8
		c8-0.6,14.9,5.4,15.4,13.4C1136.6,94.8,1136.6,95.5,1136.6,96.2z"/>
	<g>
		<g>
			<g class="st2">
				<defs>
					<rect id="SVGID_11_" x="1115.2" y="126.1" class="st2" width="7.7" height="15.9"/>
				</defs>
				<clipPath id="SVGID_12_">
					<use xlink:href="#SVGID_11_"  style="overflow:visible;"/>
				</clipPath>
				<g class="st8">
					<g>
						<g>
							<g>
								<path class="st1" d="M1118.3,126.1l4.3,0c0.2,0,0.3,0.3,0.3,0.7c0,0.1,0,0.3-0.1,0.4l-4.5,14.6c-0.1,0.2-0.2,0.3-0.3,0.3
									c-0.1,0-0.1,0-0.2-0.1l-0.1-0.2l-2-5.9c-1-2.8-0.6-6.7,0.8-8.6C1117,126.4,1117.6,126.1,1118.3,126.1"/>
							</g>
						</g>
					</g>
				</g>
			</g>
		</g>
	</g>
</g>
<g>
	<path class="st1" d="M1192.3,74.5c3.1-4.1,5.2-6.2,8.7-10.6c0,0-6.7-5.9-19.1-5.9c-17.5,0-32,14.4-32,33c0,16.5,14.4,32,32,32h48.2
		c6.5-3.1,12.4-9.9,12.4-9.9c10.5-11.3,9.8-28.9-1.4-39.3s-28.9-9.8-39.3,1.4c-4.2,4.5-6.8,10.3-7.3,16.5c-0.4,4.9,0.9,12.8,4,17.9
		H1182c-11.3,0-19.6-8.8-19.6-18.6c0-10.3,7.2-19.6,19.6-19.6C1185.6,71.3,1189.2,72.4,1192.3,74.5z M1236.6,96.2
		c-0.7,7.7-7.1,13.5-14.8,13.4h-0.3c-7.6,0-13.7-6.1-13.7-13.7c0,0,0,0,0,0v-0.3c-0.1-7.7,5.7-14.2,13.4-14.8
		c8-0.6,14.9,5.4,15.4,13.4C1236.6,94.8,1236.6,95.5,1236.6,96.2z"/>
	<g>
	</g>
</g>
<g>
	<path class="st1" d="M1292.3,74.5c3.1-4.1,5.2-6.2,8.7-10.6c0,0-6.7-5.9-19.1-5.9c-17.5,0-32,14.4-32,33c0,16.5,14.4,32,32,32h48.2
		c6.5-3.1,12.4-9.9,12.4-9.9c10.5-11.3,9.8-28.9-1.4-39.3s-28.9-9.8-39.3,1.4c-4.2,4.5-6.8,10.3-7.3,16.5c-0.4,4.9,0.9,12.8,4,17.9
		H1282c-11.3,0-19.6-8.8-19.6-18.6c0-10.3,7.2-19.6,19.6-19.6C1285.6,71.3,1289.2,72.4,1292.3,74.5z M1336.6,96.2
		c-0.7,7.7-7.1,13.5-14.8,13.4h-0.3c-7.6,0-13.7-6.1-13.7-13.7c0,0,0,0,0,0v-0.3c-0.1-7.7,5.7-14.2,13.4-14.8
		c8-0.6,14.9,5.4,15.4,13.4C1336.6,94.8,1336.6,95.5,1336.6,96.2z"/>
	<g>
		<g>
			<g class="st2">
				<defs>
					<rect id="SVGID_13_" x="1315.2" y="126.1" class="st2" width="7.7" height="15.9"/>
				</defs>
				<clipPath id="SVGID_14_">
					<use xlink:href="#SVGID_13_"  style="overflow:visible;"/>
				</clipPath>
				<g class="st9">
					<g>
						<g>
							<g>
								<path class="st1" d="M1319.9,126.1l-4.3,0c-0.2,0-0.3,0.3-0.3,0.7c0,0.1,0,0.3,0.1,0.4l4.6,14.6c0.1,0.2,0.2,0.3,0.3,0.3
									c0.1,0,0.1,0,0.2-0.1l0.1-0.2l2-5.9c1-2.8,0.6-6.7-0.8-8.6C1321.1,126.4,1320.5,126.1,1319.9,126.1"/>
							</g>
						</g>
					</g>
				</g>
			</g>
		</g>
	</g>
</g>
<g>
	<path class="st1" d="M1392.3,74.5c3.1-4.1,5.2-6.2,8.7-10.6c0,0-6.7-5.9-19.1-5.9c-17.5,0-32,14.4-32,33c0,16.5,14.4,32,32,32h48.2
		c6.5-3.1,12.4-9.9,12.4-9.9c10.5-11.3,9.8-28.9-1.4-39.3s-28.9-9.8-39.3,1.4c-4.2,4.5-6.8,10.3-7.3,16.5c-0.4,4.9,0.9,12.8,4,17.9
		H1382c-11.3,0-19.6-8.8-19.6-18.6c0-10.3,7.2-19.6,19.6-19.6C1385.6,71.3,1389.2,72.4,1392.3,74.5z M1436.6,96.2
		c-0.7,7.7-7.1,13.5-14.8,13.4h-0.3c-7.6,0-13.7-6.1-13.7-13.7c0,0,0,0,0,0v-0.3c-0.1-7.7,5.7-14.2,13.4-14.8
		c8-0.6,14.9,5.4,15.4,13.4C1436.6,94.8,1436.6,95.5,1436.6,96.2z"/>
	<g>
		<g>
			<g class="st2">
				<defs>
					<rect id="SVGID_15_" x="1412.4" y="126.1" class="st2" width="13.4" height="15.9"/>
				</defs>
				<clipPath id="SVGID_16_">
					<use xlink:href="#SVGID_15_"  style="overflow:visible;"/>
				</clipPath>
				<g class="st10">
					<g>
						<g>
							<g>
								<path class="st1" d="M1420.5,126.1l-7.5,0c-0.3,0-0.6,0.3-0.6,0.7c0,0.1,0,0.3,0.1,0.4l7.9,14.6c0.1,0.2,0.3,0.3,0.5,0.3
									c0.1,0,0.2,0,0.3-0.1l0.2-0.2l3.5-5.9c1.7-2.8,1.1-6.7-1.4-8.6C1422.6,126.4,1421.6,126.1,1420.5,126.1"/>
							</g>
						</g>
					</g>
				</g>
			</g>
		</g>
	</g>
</g>
<rect x="237.8" y="162.6" style="fill:none;" width="1136.7" height="53.2"/>
<text transform="matrix(1 0 0 1 237.7998 191.017)" style="font-family:'MyriadPro-Regular'; font-size:40px;">   0       30       60       90    120    150    180     -150    -120    -90    -60     -30</text>
</svg>
