<svg xmlns="http://www.w3.org/2000/svg" viewBox="0 0 514.8335 136.2793"><title>logo-title</title><path d="M148.56836,43.46H129.69824L135.478,54.50977l-26.43562,49.56707a20.65346,20.65346,0,0,1-18.46478,10.93281L68.33984,114.75a51.29862,51.29862,0,0,1-19.04-3.5625,52.46616,52.46616,0,0,1-15.98-9.84375A46.34134,46.34134,0,0,1,22.27,86.3252a44.15535,44.15535,0,0,1-4.08008-18.9209,49.17863,49.17863,0,0,1,3.82471-19.60059,47.35528,47.35528,0,0,1,10.54-15.44336,46.74755,46.74755,0,0,1,15.895-10.0957,54.02666,54.02666,0,0,1,19.72021-3.56543,51.25267,51.25267,0,0,1,20.3999,4.08008C94.91553,25.5,98.46973,27.23926,103.23,32l13.8999-11.94043A69.06126,69.06126,0,0,0,95.28467,5.35449,67.674,67.674,0,0,0,68.33984,0a70.57354,70.57354,0,0,0-47.855,18.61426,65.23671,65.23671,0,0,0-14.96,20.74023A61.16594,61.16594,0,0,0,0,65.2793,68.16167,68.16167,0,0,0,5.27,92.05469a66.62759,66.62759,0,0,0,36.03955,36.125,68.08265,68.08265,0,0,0,26.86035,5.38012H94.63623l.00012-.00024h11.6861c3.33087,0,6.35437-1.41821,9.2511-3.0625a110.53986,110.53986,0,0,1,13.18963-5.52246,88.2792,88.2792,0,0,1,14.53516-3.31543,96.21015,96.21015,0,0,1,16.1499-1.35938h10.54l6.97022,13.25977h19.21Zm10.71,60.85938q-13.77027,0-22.60986,2.7207a83.80659,83.80659,0,0,0-13.09033,4.92969l20.91015-40.29,17.16992,32.63965Z"/><path d="M204.13672,133.55957V45.5h18.18994v70.37988h46.75v17.67969Z"/><path d="M278.57617,133.55957V45.5H295.9165v88.05957Z"/><path d="M400.27539,123.69922a49.43741,49.43741,0,0,1-16.66016,9.43555,61.81547,61.81547,0,0,1-38.92968,0,50.83822,50.83822,0,0,1-16.5752-9.18067A45.01622,45.01622,0,0,1,316.55029,109.165a44.43522,44.43522,0,0,1-4.335-19.97559,43.16944,43.16944,0,0,1,4.41992-19.88965,44.8926,44.8926,0,0,1,11.73-14.62011,51.48694,51.48694,0,0,1,16.66016-9.00977,61.36248,61.36248,0,0,1,19.21-3.06054A64.21519,64.21519,0,0,1,383.10547,45.415a53.63472,53.63472,0,0,1,16.48974,8.24414l-11.73,13.60059a37.97666,37.97666,0,0,0-11.13476-5.18555A45.03484,45.03484,0,0,0,364.23535,60.29a42.96054,42.96054,0,0,0-12.41015,1.78418,33.91922,33.91922,0,0,0-10.71,5.35547,25.7657,25.7657,0,0,0-7.56494,9.09472,28.397,28.397,0,0,0-2.80468,13.00489,27.14872,27.14872,0,0,0,2.88964,12.91992,26.79757,26.79757,0,0,0,7.65039,9.01074,33.74752,33.74752,0,0,0,10.79493,5.35449,43.20288,43.20288,0,0,0,12.3247,1.78516,39.03379,39.03379,0,0,0,18.53028-4.58984V99.89941h-9.01026l-7.48-16.49023h33.83008Z"/><path d="M514.8335,88.67969a44.18662,44.18662,0,0,1-4.42774,20.05957,46.749,46.749,0,0,1-11.66357,14.96,51.165,51.165,0,0,1-16.68653,9.35058,59.936,59.936,0,0,1-19.49707,3.2295,60.58293,60.58293,0,0,1-19.41162-3.14453,50.9495,50.9495,0,0,1-16.60449-9.18067A45.06737,45.06737,0,0,1,414.96387,109.165a44.36546,44.36546,0,0,1-4.34033-19.97559,43.13417,43.13417,0,0,1,4.42529-19.88965,44.91343,44.91343,0,0,1,11.74853-14.62011,51.63034,51.63034,0,0,1,16.68946-9.00977,61.55919,61.55919,0,0,1,19.2417-3.06054A65.77106,65.77106,0,0,1,482.05566,45.5a49.7943,49.7943,0,0,1,16.68653,8.66992A42.72186,42.72186,0,0,1,514.8335,88.67969Zm-18.52979.16992A25.52484,25.52484,0,0,0,485.79,67.34473,32.13278,32.13278,0,0,0,475.022,62.24414a47.31074,47.31074,0,0,0-12.29345-1.61426,45.7057,45.7057,0,0,0-12.46289,1.69922,31.45273,31.45273,0,0,0-10.6836,5.27051A26.40554,26.40554,0,0,0,429.15381,89.5293a27.20548,27.20548,0,0,0,2.88183,12.91992A26.81126,26.81126,0,0,0,439.667,111.46a32.31824,32.31824,0,0,0,10.76563,5.26953,45.59214,45.59214,0,0,0,12.46582,1.7002,38.77568,38.77568,0,0,0,12.20849-1.95508A34.55986,34.55986,0,0,0,485.79,110.7793a28.29863,28.29863,0,0,0,7.62891-9.26465A26.958,26.958,0,0,0,496.30371,88.84961Z"/></svg>