<svg xmlns="http://www.w3.org/2000/svg" viewBox="0 0 226.15337 96.08477"><defs><style>.a{fill:#f2f2f2;}</style></defs><title>nuage-login</title><path class="a" d="M0,30.64427c0-4.08281,17.36327-8.34467,25.72337.55631,10.93243-.55631,17.36327,3.89417,21.86486,12.23884,5.78775-1.66893,12.86168,2.22524,14.79093,5.56311,2.57234-16.133,36.6558-23.92137,46.30206-2.22524,7.07392-1.11263,10.93243.55631,14.79093,3.33786,3.85851-6.11942,11.57552-10.0136,21.22178-6.11942,5.14467-15.57671,20.57869-17.802,30.868-13.90777,4.50159-2.22525,6.43084-2.78156,12.2186-1.66894C187.13748,3.385,211.57468-.50915,219.29169,2.82871c4.25658-2.75313,5.39513-2.95985,6.43084-2.78155,0,21.69613.43084,67.03761.43084,96.03761h-226C.15337,73.08477,0,53.08477,0,30.64427Z"/></svg>